<?xml version="1.0" encoding="UTF-8"?>
<svg xmlns="http://www.w3.org/2000/svg" version="1.1" viewBox="0 0 574 500">
  <defs>
    <style>
      .cls-1 {
        fill: #fff;
      }
    </style>
  </defs>
  <!-- Generator: Adobe Illustrator 28.7.1, SVG Export Plug-In . SVG Version: 1.2.0 Build 142)  -->
  <g>
    <g id="Layer_2">
      <g>
        <path class="cls-1" d="M349,353.7h0c-2.1-6.4-8.4-2.9-14.6-2-4.4.7-9.1,1.2-13.5,1.9-6.3,1.1-14.8,1-19.1,3.4-5.5,2.8-2.2,3.4,3.1,3.2,14.7-.8,44.8,2.4,44-6.5h0Z"/>
        <path class="cls-1" d="M225.1,353.7h0c2.1-6.4,8.4-2.9,14.6-2,4.4.7,9.1,1.2,13.5,1.9,6.3,1.1,14.8,1,19.1,3.4,5.5,2.8,2.2,3.4-3.1,3.2-14.7-.8-44.8,2.4-44-6.5Z"/>
      </g>
      <g>
        <path class="cls-1" d="M172.1,275.1c.9,3.2,3.7,11,11.3,16.7,10.8,8,25.2,7.1,35.2,2,2.3-1.2,11.7-6,15.5-16.8,5.8-16.5-6.9-31-8.6-32.9-.7-.8-10.5-11.4-25.9-12.3-3.6-.2-10.4,0-17.5,3.7-3,1.6-5.2,4.2-6.8,6.8-5.3,9-5.9,23.1-3.3,32.9h0Z"/>
        <path class="cls-1" d="M402.8,275.1c-.9,3.2-3.7,11-11.3,16.7-10.8,8-25.2,7.1-35.2,2-2.3-1.2-11.7-6-15.5-16.8-5.8-16.5,6.9-31,8.6-32.9.7-.8,10.5-11.4,25.9-12.3,3.6-.2,10.4,0,17.5,3.7,3,1.6,5.2,4.2,6.8,6.8,5.3,9,5.9,23.1,3.3,32.9Z"/>
      </g>
      <path class="cls-1" d="M399,399.8c-4.8,10.1-10.3,17.5-14.5,22.3-4.4,5.2-8.2,8.6-9.3,9.6-2.2,1.9-7.2,6.1-14.4,10.4-4.5,2.6-8.1,4.3-9.4,4.8-2.2,1-5.9,2.5-11,4-4.9,1.5-10.1,2.3-20.4,4,0,0-9.2,1.5-22.9,3.2-5.4.9-14.7.9-20.1,0-13.7-1.7-22.9-3.2-22.9-3.2-10.2-1.7-15.5-2.5-20.4-4-5.2-1.5-8.9-3-11.1-4-1.2-.5-4.8-2.1-9.4-4.8-7.2-4.2-12.2-8.4-14.4-10.4-1.1-1-4.9-4.4-9.3-9.6-4.1-4.8-9.6-12.2-14.4-22.3,2.7,2.9,6.8,7.1,11.9,12,5.7,5.5,8.6,8.2,12.7,11.2,5.8,4.2,10.5,6.3,17.9,9.6,6.7,3,13.9,6.2,23.8,8.8,6.9,1.8,15.4,2.8,32.3,4.8,5.5.6,10.1,1.1,13.5,1.5,3.4-.4,8-.9,13.5-1.5,16.9-2,25.4-3,32.3-4.8,9.9-2.6,17.1-5.8,23.8-8.8,7.3-3.3,12.1-5.4,17.9-9.6,4.1-3,7-5.7,12.7-11.2,5.1-4.9,9.2-9,11.9-12Z"/>
      <path class="cls-1" d="M574,175v125l-74.5,125c-41.7,23.3-82.5,51.7-124.2,75h-24.8c62-33.8,73.9-50,97.8-75,24.9-26,37.4-47.7,41.3-62,1.8-6.5,2.7-17.2,3-24,1-25-15.2-48.3-15.9-89-.7-40.8,4-36,0-71-1.4-12-4.1-28.6-14.9-45-4-6.2-12.6-19.3-28.8-27-17-8.1-33.5-6.2-51.5-5-15,1-36.8,8.6-56.9,24-25.7,19.8-26,46.7-34.7,51.3-.4.2-.9.4-1.4.5-.5.1-.9.2-1.4.2s-1,0-1.5-.2c-.5-.1-.9-.3-1.4-.5-8.8-4.6-9-31.5-34.7-51.3-20.1-15.4-41.9-23-56.9-24-18-1.2-34.4-3.1-51.5,5-16.2,7.7-24.8,20.8-28.8,27-10.7,16.4-13.5,33-14.9,45-4,35,.7,30.2,0,71-.7,40.7-16.9,64-15.9,89,.3,6.8,1.2,17.5,3,24,3.9,14.3,16.3,36,41.3,62,23.9,25,35.8,41.2,97.8,75h-24.8c-41.7-23.3-82.5-51.7-124.2-75L0,300v-125l58.8-51.1,33.8-61.5c4.4-8.1,11.2-14.6,19.5-18.6l54.3-26.7c4.2-2.1,8.8-3.5,13.5-4.1L272.9,0h28.2l93.1,13c4.7.7,9.2,2.1,13.5,4.1l54.3,26.7c8.2,4,15,10.5,19.5,18.6l33.8,61.5,58.8,51.1h0Z"/>
    </g>
  </g>
</svg>