<?xml version="1.0" encoding="UTF-8"?>
<svg xmlns="http://www.w3.org/2000/svg" version="1.1" viewBox="0 0 1529 896.6">
  <defs>
    <style>
      .cls-1 {
        fill: #fff;
      }
    </style>
  </defs>
  <!-- Generator: Adobe Illustrator 28.7.1, SVG Export Plug-In . SVG Version: 1.2.0 Build 142)  -->
  <g>
    <g id="Layer_1">
      <g>
        <g>
          <path d="M963.7,897.5c-9,0-17.7-3.2-24.7-9.2l-7.3-6.3-9.6,7.4c-6.6,5.1-14.7,7.8-23,7.8h-210.3c-1.9,0-3.7-.1-5.5-.4-1.8.3-3.7.4-5.5.4h-75.5c-11.8,0-22.3-5.4-29.3-13.9-6.9,8.5-17.5,13.9-29.3,13.9h-73c-16.7,0-30.9-10.9-35.9-25.9-5,15.2-19.3,25.9-35.9,25.9h-72.9c-10.6,0-20.7-4.5-27.9-12.3-7.2-7.8-10.7-18.3-9.7-28.9l22.1-240.7c1-11.2,7-21.3,16.3-27.7l41.1-28.1c6.3-4.3,13.8-6.6,21.3-6.6s6.4.4,9.6,1.2l108.9,28.6,105.4-28.6c3.3-.9,6.6-1.3,9.9-1.3,7.8,0,15.4,2.4,21.9,7l24.9,17.7,5.2-5.5c7.1-7.5,17-11.8,27.4-11.8h190.5c5.5,0,10.9,1.2,15.8,3.5l8.2-94.7c1.7-19.5,18-34.5,37.6-34.5h70.1c10.5,0,20.6,4.4,27.7,12.1,7.1,7.7,10.7,18.1,9.9,28.6l-7.2,90.6,117.3,10.7c9.5.9,18.4,5.3,24.8,12.5l30.1,33.8c6.8,7.7,10.2,17.8,9.4,28l-11.6,147.3c-.7,8.4-4.1,16.3-9.7,22.5l-25.8,28.2c-5.6,6.1-13,10.2-21.1,11.7l-198.2,36.3c-2.3.4-4.5.6-6.8.6ZM817.4,746.4l-1-37.7h-36.3l-2.5,37.7h39.9ZM1044.8,730.2l34.4-6.3.5-6.3-33.8-3-1.1,15.6Z"/>
          <path d="M1434.2,485.4c-2.3,0-4.7-.2-7.1-.7l-227.3-42.9c-6.6-1.3-12.7-4.2-17.8-8.6l-17.3,19.7c-7.5,8.5-17.9,12.8-28.4,12.8s-17.2-2.9-24.3-8.9l-94.3-79.3-11.8,54.7c-3.7,17.4-19.1,29.8-36.9,29.8h-139.1c-20.4,0-37.1-16.2-37.7-36.5l-4.6-150.2-21.5,3.3-16,149.7c-2,19.2-18.2,33.7-37.5,33.7h-81c-5.3,0-10.4-1.1-15.1-3.2-2.3.4-4.6.6-7,.6h-206.6c-4.3,1.6-8.9,2.5-13.5,2.5h-75.5c-11.8,0-22.3-5.4-29.3-13.9-6.9,8.5-17.5,13.9-29.3,13.9h-73c-16.7,0-30.9-10.9-35.9-25.9-5,15.2-19.3,25.9-35.9,25.9H37.9c-10.6,0-20.7-4.5-27.9-12.3-7.2-7.8-10.7-18.3-9.7-28.9l22.1-240.3c1-11.2,7-21.4,16.3-27.7l41.1-28c6.3-4.3,13.8-6.6,21.3-6.6s6.4.4,9.6,1.2l108.9,28.6,105.4-28.6c3.3-.9,6.6-1.3,9.9-1.3,7.8,0,15.4,2.4,21.9,7l25.3,18,5.5-5.8c7.1-7.5,17-11.8,27.4-11.8h188.8c8.2,0,16.2,2.7,22.8,7.6l29.8,22.5,5.3-5.1c5.7-5.5,12.9-9.1,20.7-10.3l172.6-26c1.9-.3,3.8-.4,5.6-.4,8.2,0,16.2,2.7,22.9,7.7l33.6,25.6,25.3-117.3c3.7-17.4,19.1-29.8,36.9-29.8h73.5c11.4,0,22.2,5.2,29.4,14,7.2,8.9,9.9,20.5,7.5,31.6l-18.3,84.7,14.8-13.1c7.2-6.3,16.1-9.4,25-9.4s19.3,3.7,26.6,11l37.6,37.4c1.9-3.1,4.2-6,7-8.5l29.4-26.6c6.2-5.6,14.1-9,22.4-9.6l167.4-13c1,0,2-.1,2.9-.1,6,0,12,1.4,17.3,4.2l31.7,16.4c6.8,3.5,12.4,9,16,15.8l51.2,96.1c5.8,10.9,5.9,24.1.2,35.1l-23.9,46.2c-5.6,10.7-15.9,18.1-27.9,19.9l-25.9,3.9,13.4,2.5c10,1.9,18.8,7.7,24.4,16.1,5.6,8.4,7.6,18.8,5.5,28.7l-15.2,72.3c-3.7,17.7-19.4,29.9-36.9,29.9ZM529,311.3l-1-37.5h-36.5l-2.5,37.5h40.1ZM1152.7,293.7l5.6-39.2-25.3,22.9,19.7,16.3Z"/>
        </g>
        <g>
          <path class="cls-1" d="M1169.1,614.2l-154.4-14,10.1-127.7h-70.1l-23.5,270.6-3.3-118.5-34.9-26.4h-190.5l-31.3,33.1-3.3,45.4-3-56.1-41.8-29.7-115.1,31.2-118.7-31.2-41.1,28.1-22.1,240.7h72.9l19.7-184.5,52.1,13.2v171.2h73v-171.2l48.2-12.1,10.4,183.3h75.5l-.8-15.7,11.9,15.7h210.3l34-26.1,30.6,26.4,198.2-36.3,25.8-28.2,11.6-147.3-30.1-33.8ZM737.2,784.1l7.6-113.1h108.3l3.1,113.1h-119ZM1114.5,755.7l-110.7,20.4,7.2-102.4,109.4,9.7-5.8,72.3Z"/>
          <path class="cls-1" d="M1463.4,294.6l23.9-46.2-51.2-96.1-31.7-16.4-167.4,13-29.4,26.6-27,190.1-105.3-87,88.9-80.3-53.1-52.8-100.9,89.1,42.5-196.9h-73.5l-76.6,355.2-3-211.7-39-29.7-172.6,26-27.3,26.6-18,137.8-4.2-152.4-34.6-26.1h-188.8l-31.1,32.8-3.8,51.7-3.3-62.1-41.8-29.7-115.1,31.2-118.6-31.1-41.1,28-22.1,240.3h72.9l19.7-184.2,52,13.2v171h73v-171l48.1-12.1,10.4,183h75.5l-1-19.3,12.8,16.8h208.4l24.9-19.1-2.8,21.6h81l19.1-178.6,92.3-14.2,6,192.8h139.1l25-116,142.2,119.7,47.3-53.9,23.1,30.6,227.3,42.9,15.2-72.3-188.2-35.6,2-14.8,200.1-30.3ZM1277.9,219.5l103.6-7.5,11.1,20.9-120,24.5,5.2-37.9ZM448.6,349l7.6-113h108.5l3.1,113h-119.2Z"/>
        </g>
      </g>
    </g>
  </g>
</svg>