<?xml version="1.0" encoding="UTF-8"?>
<svg id="Layer_2" data-name="Layer 2" xmlns="http://www.w3.org/2000/svg" viewBox="0 0 574 500">
  <defs>
    <style>
      .cls-1 {
        fill: #fff;
        stroke-width: 0px;
      }
    </style>
  </defs>
  <g>
    <path class="cls-1" d="M348.95,353.69l.05-.14c-2.13-6.27-8.42-2.76-14.63-1.81-4.4.73-9.06,1.17-13.46,1.91-6.26,1.06-14.76,1.05-19.1,3.39-5.46,2.77-2.17,3.38,3.12,3.16,14.73-.76,44.83,2.37,44.02-6.51h0Z"/>
    <path class="cls-1" d="M225.05,353.69l-.05-.14c2.13-6.27,8.42-2.76,14.63-1.81,4.4.73,9.06,1.17,13.46,1.91,6.26,1.06,14.76,1.05,19.1,3.39,5.46,2.77,2.17,3.38-3.12,3.16-14.73-.76-44.83,2.37-44.02-6.51Z"/>
  </g>
  <g>
    <path class="cls-1" d="M172.06,275.06c.93,3.22,3.67,11.01,11.27,16.66,10.78,8.01,25.19,7.12,35.25,1.95,2.29-1.17,11.72-6.01,15.52-16.76,5.81-16.45-6.92-31.04-8.57-32.87-.74-.82-10.54-11.35-25.87-12.32-3.6-.23-10.38-.09-17.47,3.67-2.99,1.59-5.23,4.17-6.8,6.76-5.3,8.99-5.85,23.11-3.33,32.91h0Z"/>
    <path class="cls-1" d="M402.78,275.06c-.93,3.22-3.67,11.01-11.27,16.66-10.78,8.01-25.19,7.12-35.25,1.95-2.29-1.17-11.72-6.01-15.52-16.76-5.81-16.45,6.92-31.04,8.57-32.87.74-.82,10.54-11.35,25.87-12.32,3.6-.23,10.38-.09,17.47,3.67,2.99,1.59,5.23,4.17,6.8,6.76,5.3,8.99,5.85,23.11,3.33,32.91Z"/>
  </g>
  <path class="cls-1" d="M399,399.76c-4.84,10.12-10.33,17.49-14.45,22.32-4.41,5.18-8.2,8.57-9.34,9.57-2.2,1.93-7.21,6.14-14.44,10.37-4.52,2.63-8.15,4.26-9.35,4.78-2.19.96-5.89,2.47-11.05,3.99-4.93,1.45-10.15,2.31-20.39,3.98,0,0-9.22,1.51-22.93,3.19-5.41.9-14.69.9-20.1,0-13.71-1.68-22.93-3.19-22.93-3.19-10.24-1.67-15.46-2.53-20.39-3.98-5.16-1.52-8.86-3.03-11.05-3.99-1.2-.52-4.83-2.15-9.35-4.78-7.23-4.23-12.24-8.44-14.44-10.37-1.14-1-4.93-4.39-9.34-9.57-4.12-4.83-9.61-12.2-14.45-22.32,2.74,2.92,6.78,7.1,11.9,11.96,5.73,5.45,8.61,8.17,12.74,11.16,5.76,4.16,10.54,6.31,17.85,9.57,6.68,2.98,13.88,6.2,23.78,8.77,6.92,1.8,15.38,2.79,32.28,4.78,5.45.64,10.07,1.14,13.45,1.5,3.38-.36,8-.86,13.45-1.5,16.9-1.99,25.36-2.98,32.28-4.78,9.9-2.57,17.1-5.79,23.78-8.77,7.31-3.26,12.09-5.41,17.85-9.57,4.13-2.99,7.01-5.71,12.74-11.16,5.12-4.86,9.16-9.04,11.9-11.96Z"/>
  <path class="cls-1" d="M574,175v125l-74.52,125c-41.74,23.33-82.48,51.67-124.22,75h-24.84c62.04-33.81,73.89-50,97.84-75,24.92-26.02,37.4-47.73,41.27-62,1.76-6.5,2.71-17.25,2.98-24,.98-25-15.24-48.29-15.91-89-.67-40.84,3.98-36,0-71-1.37-12.04-4.15-28.55-14.9-45-4.02-6.15-12.59-19.26-28.82-27-17.04-8.13-33.48-6.2-51.49-5-14.97,1-36.83,8.59-56.88,24-25.69,19.75-25.97,46.7-34.72,51.29-.43.24-.88.42-1.36.54-.46.11-.94.17-1.43.17s-.99-.06-1.45-.17c-.47-.12-.93-.3-1.36-.54-8.76-4.59-9.03-31.54-34.72-51.29-20.05-15.41-41.91-23-56.88-24-18.01-1.2-34.45-3.13-51.49,5-16.23,7.74-24.8,20.85-28.82,27-10.75,16.45-13.53,32.96-14.9,45-3.98,35,.67,30.16,0,71-.67,40.71-16.89,64-15.91,89,.27,6.75,1.22,17.5,2.98,24,3.87,14.27,16.35,35.98,41.27,62,23.95,25,35.8,41.19,97.84,75h-24.84c-41.74-23.33-82.48-51.67-124.22-75L0,300v-125l58.81-51.09,33.76-61.52c4.43-8.06,11.23-14.56,19.48-18.61l54.28-26.67c4.25-2.09,8.81-3.48,13.5-4.14L272.89,0h28.2l93.08,12.97c4.69.66,9.25,2.05,13.5,4.14l54.28,26.67c8.25,4.05,15.05,10.55,19.48,18.61l33.76,61.52,58.81,51.09Z"/>
</svg>