<svg xmlns="http://www.w3.org/2000/svg" viewBox="0 0 1919.8 627.9"><g fill="#fff"><path d="M261.9 513c-6.7-49.7-13.5-99.4-20.5-149.1-.3-2.1-2-4.6-3.7-5.9-6.6-4.9-13.4-9.6-20.4-14-2.1-1.3-5.5-2-7.8-1.5-53.3 12.7-106.6 25.6-159.9 38.5-1.6.4-3.1 1-4.8 1.6 4 15.7 8 30.9 12 46.6 46.7-11.2 92.7-22.2 139.3-33.4 2.1 15.5 4.2 30.5 6.3 46.1H89c-2 0-4.4 0-5.8 1-6.3 4.5-12.3 9.4-18.3 14.3-1.1 1-1.7 2.8-2.1 4.3-7.4 28.6-14.8 57.1-22 85.8-.5 1.9.5 4.8 1.8 6.4 4.2 5 9.7 9.1 13.4 14.3 6.1 8.7 13.5 9.4 23.4 7.7 47.4-8 95-15.3 142.5-22.7 2-.3 4.5 1.2 6.5 2.3 3.2 1.6 6 4.1 9.2 5.4 4 1.6 8.4 2.5 12.6 3.6 9.4 2.6 18.8 5.1 28.7 7.8 4.4-15.6 8.7-30.8 13.1-46.4-8.6-2.4-16.7-4.9-24.8-6.9-3.5-.9-4.7-2.5-5.2-6ZM98.5 523c0-1.4 0-2.5.3-3.5 2.1-8.4 4.4-16.8 6.5-25.2.6-2.6 1.6-4 4.7-3.9 31.8.1 63.6 0 95.4 0 2.6 0 4.1.5 4.3 3.5.2 3.6.9 7.2 1.4 11.5-37.8 5.9-74.9 11.8-112.5 17.6ZM481.6 500.9c1.9 16.3 3.8 32.1 5.7 48.4-16.3 1.9-31.7 3.7-47.1 5.5-24.7 2.9-49.3 5.7-74 8.6-12.4 1.4-24.8 3.1-37.2 4.2-2.3.2-5.3-.9-7-2.4-6.5-5.9-12.7-12.1-18.6-18.4-1.5-1.6-2.4-4.4-2.2-6.5 5.7-55.2 11.7-110.4 17.4-165.5.4-3.3 1.7-5.4 4.3-7.3 5.4-3.8 10.8-7.6 15.7-11.9 4.2-3.8 8.5-4.1 13.8-3.3 37 6.1 74 11.9 111 17.8 4.8.8 9.6 1.6 15.2 2.5-2.6 15.9-5.2 31.6-7.8 47.9-35.1-5.6-69.7-11.1-105.1-16.7-4.1 37.4-8.2 74.5-12.4 112.5 43.1-5.1 85.4-10.2 128.3-15.3ZM717.7 379.9c1.1 15.2 2.1 29.6 3.2 44.4-5.5.5-10.5 1-15.5 1.4-24.4 1.8-48.9 3.6-73.4 5.2-4.1.3-5.7 1.6-6.1 5.9-2.2 25.2-4.7 50.5-7.1 75.7v3c25.5 7.2 51.1 14.4 76.9 21.6-4.4 15.6-8.7 30.7-13 46.2-2-.5-3.6-.8-5.2-1.2-30.2-8.4-60.5-16.7-90.7-25.2-2.5-.7-5.1-2.6-6.6-4.7-4.7-6.3-10.9-12.5-12.7-19.6-1.8-7.2.8-15.5 1.5-23.2 2.2-22.4 4.4-44.8 6.5-67.2.1-1.5.2-3 .3-5.1h-75.4c-1.4-16.5-2.7-32.4-4.1-48.8h84.2c1.4-14.6 2.7-28.8 4.1-43.7 16.4 1.6 32.5 3.1 49.3 4.7-.9 10.2-1.8 20.2-2.7 30.7h86.3ZM1045.7 387.3c-1.3 1.8-2.3 3.3-3.4 4.8-40 54.8-80 109.6-119.9 164.4-2.3 3.2-4.4 4.1-8.3 3.4-10.8-2-21.7-3.3-32.5-5.3-1.6-.3-3.5-2.8-4-4.7-11.6-36.6-23-73.2-34.5-109.8-7.9-25.3-15.9-50.6-23.8-75.9-.7-2.1-1.2-4.1-2.1-6.9 15.8-4.9 31.3-9.8 47.3-14.8 15.3 48.9 30.4 97.2 45.9 146.7 32-43.8 63.5-86.7 95.3-130.3 13.6 9.7 26.6 18.9 39.9 28.4ZM1427.8 325.1c5 18.4 9.9 36.4 14.9 54.9-16 4.3-31.6 8.6-47.9 13-5-18.3-9.9-36.3-14.9-54.9 16-4.4 31.6-8.6 47.9-13ZM1102.2 325.1c5 18.3 9.9 36.3 15 55-16.2 4.4-31.7 8.6-47.9 13-5-18.3-9.9-36.2-14.9-54.8 15.9-4.3 31.5-8.6 47.9-13.1ZM1440.3 412c-3.2 24.6-6.2 49.3-9.3 73.9-3.3 26.6-6.7 53.3-10 79.9-.2 1.5-.5 2.9-.9 4.8-16.6-1.9-32.5-3.7-49.2-5.6 6.9-54.9 13.7-109.3 20.6-164.4 8.1.9 15.8 1.7 23.5 2.6 6.9.8 13.7 2.2 20.6 2.4 5 .2 5.3 2.2 4.7 6.2ZM1471.8 321.7c9.5 1.1 18.8 3.2 28.5 4.9 3.2-16.1 6.2-31.5 9.4-47.3-45.1-8.2-89.5-16.3-134.2-24.5 2.1-16 4.2-31.5 6.3-47h1.3c2.6 11.5 5.2 22.9 7.8 34.6 1.5-.2 2.4-.3 3.4-.5 41.3-8.5 82.6-16.9 123.9-25.5 1.8-.4 3.8-2.1 4.7-3.8 4.3-8.1 8.5-16.3 12.3-24.7.9-1.9.8-4.9-.1-6.8-8.1-16.3-17.3-32.1-24.6-48.8-5.4-12.4-13.4-21.2-26.1-25.7-2.6-.9-5.5-1.8-8.1-1.7-17.4 1.2-34.7 2.6-52.1 4-19.9 1.6-39.7 3.2-59.6 4.9-4.1.3-21.8 16.9-22.6 20.9 0 .3 0 .7-.1 1-6 44.1-12 88.2-18.2 132.2-.5 3.8.2 6.7 2.6 9.6 4.3 5.5 8.3 11.4 12.5 17 1 1.3 2.6 2.8 4.2 3.2 16.6 3.6 33.3 8 50 .3 2-.9 4.2-1.2 6.3-1.8 17.7-4.8 35.4-9.5 53.6-14.4 2.7 10.1 5.8 19.8 7.8 29.7 1.4 6.5 4.3 9.4 11.1 10.2Zm-83.9-159c.2-1.1 2.1-2.6 3.3-2.7 23.2-1.8 46.5-3.4 69.8-5.2 3.6-.3 5.5.8 7 4.1 2.4 5.4 5.4 10.7 8.4 16.5-31.1 6.6-61.5 13.1-92.9 19.7 1.5-11.4 2.8-21.9 4.4-32.4ZM758.3 400.6c16.8 2 32.9 3.9 49.5 5.8-6.9 54.9-13.7 109.3-20.6 164.2-16.7-1.9-32.7-3.7-49.5-5.6 6.9-54.9 13.7-109.3 20.6-164.5ZM681.7 301.7c1 1.3 2.9 2.7 4.4 2.7 25.6-.1 51.3 2 76.3-6.6 18.6-6.4 37.9-10.5 57.4-15.8 1.7 6.1 3.3 11.8 4.9 17.6 1.6 5.8 4.3 6.8 9.3 3.2 6.3-4.5 12.6-9 18.6-13.9 1.5-1.2 2.7-3.8 2.6-5.8-1.1-48-2.4-96-3.9-143.9 0-1.8-1.2-4.2-2.7-5.4-5.8-4.8-11.8-9.4-17.9-13.9-1.4-1-3.3-1.7-5-1.7-43 0-86-.1-129 0-1.7 0-3.9 1-5.1 2.3-5.7 5.9-11.3 12-16.7 18.1-1.1 1.3-1.9 3.2-2.1 4.9-3.2 43.2-6.2 86.4-9.2 129.7-.1 1.8.4 4 1.5 5.5 5.4 7.9 11 15.6 16.8 23.2Zm39-135.6h82.1c.8 30.1 1.6 59.7 2.3 89.6h-90.2c1.9-30 3.9-59.7 5.8-89.6ZM1132.6 301.8l-5.1-18.3c-.1-.5-.4-.9-.8-1.5-7.6 2-15.2 4-23.7 6.2 18.3-81.4 36.3-161.9 54.5-243.1 16.2 3.5 31.7 6.8 47.7 10.2-19.3 86.5-38.5 172.6-57.8 258.8-.5 0-.9.2-1.1.2q-11-1.9-13.9-12.5ZM1197.9 189.8c21-19.8 42.1-39.6 63.2-59.4 1.1-1 2.2-2 3.8-3.4 11.3 11.6 22.3 22.9 33.7 34.7-21.3 19.9-42.4 39.8-63.7 59.8 26.6 22.8 53 45.4 79.9 68.5-5.5 6.3-11.3 12.1-16.1 18.6-4.5 6-9.3 7.8-17.1 6.9-9-1-16-3.7-22.8-9.7-24.6-21.9-49.8-43.1-74.9-64.5-2.5-2.2-3.9-4.4-3.5-7.7.1-.8 0-1.7 0-2.5 0-8.2-2.2-17.2.7-24.2 2.8-6.8 11-11.4 16.8-17ZM492.9 305.6c-4.2 0-5-1.5-5-5.2-.2-37.7-.7-75.3-.9-113 0-4.2-1.1-6.1-5.5-7.2-11.6-2.8-23.1-6.2-35.4-9.6-4.5 45.6-9 90.7-13.5 136.7-16.7-1.3-32.7-2.6-49.1-3.9 0-1.5-.1-2.8 0-4 5.2-53.8 10.4-107.5 15.8-161.2.2-2 1.7-4.3 3.3-5.6 6.9-5.1 13.9-10 21.2-14.6 2.1-1.3 5.4-2 7.8-1.4 26 6.6 51.9 13.6 77.9 20.4 2.4.6 5.4.6 7.8 0 24.9-6.7 49.8-13.6 74.6-20.6 3.6-1 6.3-.6 9.2 1.7 6.9 5.3 14.2 10.2 21.2 15.5 1.5 1.2 2.9 3.4 3 5.2 2.9 54.4 5.6 108.8 8.4 163.3v3c-1.8.1-3.4.4-5 .4-13 0-26.1-.1-39.1.1-4.1 0-5.4-1.1-5.6-5.2-2.1-40.9-4.4-81.9-6.6-122.8-.1-1.8-.3-3.6-.5-6-13.6 3.6-26.8 7.1-40.1 10.7v122.9c-1.4.1-2.8.4-4.3.4-13.2 0-26.4-.1-39.6.1ZM1065.9 400.7c16.4 1.9 32.6 3.8 49.5 5.8-6.9 54.8-13.7 109.2-20.6 164.2-16.9-1.9-32.9-3.7-49.5-5.6 6.9-54.9 13.7-109.2 20.6-164.4ZM1650 383.7c-5.2-11.6-12.4-20.3-24.6-24.5-3.2-1.1-6.7-2.3-10-2.2-8.4.2-16.8 1.2-25.3 1.9-26.9 2.1-53.9 4.3-80.9 6.2-5.3.4-9.6 2-13.2 6.1-3.2 3.6-7.3 6.5-10.5 10.1-1.8 2-3.4 4.6-3.7 7.2-5.3 37.4-10.4 74.9-15.5 112.4-1.1 8.1-4.2 16.7-2.4 24.1 1.8 7.2 8.9 13.1 13.3 19.8 2.4 3.7 5.6 5.2 9.8 6 37.7 6.8 75.4 13.7 113 20.5 13.2 2.4 26.5 4.8 40.2 7.3 3.2-15.9 6.2-31.4 9.4-47.4-44.9-8.2-89.5-16.4-134.2-24.5 2.2-16.4 4.3-32.2 6.4-48h.9c2.7 11.8 5.4 23.6 8.1 35.8 1.3-.2 2-.2 2.6-.4 41.5-8.5 83-16.9 124.4-25.6 1.9-.4 4.1-2.3 5-4.1 4.3-7.9 8.1-16.2 12.3-24.1 1.4-2.7 1.2-4.8-.1-7.4-8.5-16.3-17.5-32.4-25-49.1Zm-126.6 63.4c1.5-11.5 2.9-22.4 4.6-33.2.1-.8 1.8-1.9 2.9-1.9 23.3-1.8 46.5-3.4 69.8-5.2 3.8-.3 5.8.9 7.3 4.3 2.4 5.4 5.4 10.6 8.3 16.3-31.2 6.6-61.6 13.1-92.9 19.7ZM1353.6 420.3c.3 3.3-.6 4.3-4 4.6-28.3 1.9-56.7 4-85 6.1-2.7.2-5.2.2-5.5 4.1-2.3 26.1-4.9 52.1-7.3 78.1 0 .6.1 1.3.2 2.2 25.5 7.2 50.9 14.3 76.8 21.6-4.4 15.5-8.6 30.6-13 46.1-1.7-.3-3.2-.5-4.6-.9-30.6-8.4-61.1-16.8-91.7-25.5-2.3-.7-4.8-2.5-6.2-4.4-4.7-6.3-10.9-12.5-12.7-19.6-1.9-7.2.7-15.5 1.5-23.2 2.2-22.4 4.4-44.8 6.5-67.2.2-1.6 0-3.2 0-5.3h-75c-1.4-16.3-2.7-32.2-4.2-49h84.3c1.4-14.6 2.7-28.8 4.1-43.5 16.6 1.6 32.7 3.2 49.4 4.8-1 10.3-1.9 20.2-2.8 30.6h86c.3 2 .5 3.5.6 5.1.9 11.8 1.6 23.6 2.6 35.4ZM933.6 302.4c-16.5-2.5-32.6-4.8-49.2-7.3 2-13 3.9-25.3 5.8-37.6 4.7-30.3 9.3-60.6 14.2-90.9.5-3.3 2.4-6.9 4.8-9.4 14.7-15.1 14.9-14.8 38.8-18.2 31.1-4.5 62-9.7 93.1-14.3 2.2-.3 5 .4 6.8 1.7 6.9 5 13.6 10.4 20.2 15.9 1.5 1.2 2.7 3.5 2.8 5.3 2.5 47.9 4.8 95.9 7.2 143.8.1 2.9-.8 4.1-3.6 4.8-10.3 2.6-20.5 5.9-30.8 8.1-4.5 1-9.4.2-14.9.2-2.2-42.5-4.3-84.9-6.6-127.9-8.2 1.3-15.8 2.4-23.4 3.6-13.8 2.2-27.6 4.5-41.5 6.6-4.4.6-6.4 2.1-7.1 6.9-4.9 34.5-10.3 68.9-15.5 103.4-.2 1.6-.6 3.2-1 5.3ZM1877.7 486c-15.9 27.7-32 55.3-48.2 82.8-.9 1.5-2.6 2.4-4 3.6-.2.2-.6.2-.9.4-14.9 10.7-30.8 6.8-47 3.6-28.3-5.6-56.8-10.5-85.1-15.7-2.1-.4-4.2-.9-6.8-1.4 3.1-15.9 6.2-31.4 9.4-47.5 15.8 2.9 30.8 5.7 45.9 8.6 16.6 3.1 33.1 6.3 49.8 9.3 1.6.3 4.5-.2 5.2-1.3 7-11.4 13.7-22.9 20.8-35-11.2-1.6-21.6-3.1-32-4.5-24.8-3.4-49.5-6.8-74.3-10.3-1.6-.2-3.2-1.5-4.6-2.7-1.2-1.1-1.9-2.8-3.2-3.9-12.1-11-14.9-24.2-12.3-40 2.7-16.9 2.8-34.2 4.5-51.3.3-3 2.1-6.1 4.1-8.5 3-3.6 7.1-6.3 10-9.9 4.4-5.7 10.3-6.7 16.9-7.2 33.7-2.5 67.4-5.2 101.1-7.8 7.2-.5 14.5-1 22.2-1.5 1 16.2 2.1 31.9 3.1 48.3-36.4 2.7-72.3 5.4-108.9 8.1-.8 10.1-1.7 20.3-2.6 31 9.1 1.3 17.7 2.5 26.4 3.8 31.1 4.4 62.2 8.7 93.3 13.2 1.4.2 3.1 1.5 3.7 2.7 4.8 9.2 9.6 18.4 14 27.7.7 1.5.5 4-.3 5.4ZM746.8 338.1c5.1 18.7 10 36.6 15 54.9 16.4-4.5 32-8.7 47.9-13-5.1-18.7-10-36.6-15-54.9-16.2 4.4-31.8 8.6-47.9 13Z"/></g><path d="M1915.1 474.9c-7.5-14.7-14.7-29.6-22.6-44.1-4.5-8.3-3.3-17.2-3.9-25.9-2.4-31.4-4.2-62.8-6.2-94.2 0-.8-.2-1.6-.4-2.8-10.7.8-21.1 1.5-31.5 2.3-42.1 3.2-84.3 6.5-126.4 9.7-2.5.2-5.1.9-7.6.6-12.7-1.4-21.8 4.3-29.5 13.6-4.3 5.2-9.1 9.9-14.2 15.5-5.9-11.8-17-13.9-26-19-19.7-11.2-19.9-10.7-42.5-8.5-21.7 2.1-43.5 3.6-65.2 5.4-.6 0-1.3-.1-2.6-.3 5-25.3 10-50.4 15-76-4.1-.9-8-1.7-11.8-2.6 4.7-.8 6.9-3.6 8.8-7.7 8.7-17.9 17.8-35.5 26.5-53.3.9-1.8.9-4.6 0-6.3-15-29.6-30.2-59.2-45.5-88.6-.9-1.8-2.7-3.4-4.5-4.3-11.1-6.1-22.2-12-33.4-17.8-2.3-1.2-5.1-1.9-7.6-1.8-35.7 2.7-71.5 5.6-107.2 8.5-9.1.7-18.2 1.4-27.3 2.4-2 .2-4.2 1.2-5.7 2.6-10.4 9.5-20.7 19.2-30.9 28.9-2.2 2.1-3.9 4.7-6.1 7.4-13.2-13.6-26.9-27.6-40.8-41.9-11.6 10.8-23 21.6-34.5 32.2-.4-.2-.7-.4-1.1-.6 5.9-26.6 11.8-53.2 17.8-80.2-14.6-3.1-28.9-6.2-43.2-9.3-23.3-5-46.6-10-69.8-15-1-.2-1.9-.7-2.8-1h-2c-5.7 25.3-11.5 50.7-17.2 76-3.4 14.9-6.7 29.9-10.2 45.4-1.6-1.1-2.8-1.9-3.9-2.7-13.6-10.7-27.3-21.4-40.8-32.2-2.6-2.1-5-2.5-8.3-2-46.1 7.3-92.2 14.5-138.3 21.5-4 .6-7.2 2-10.1 5-4.7 4.8-9.8 9.1-14.8 13.6.4.3 0 .2 0 0 1.4-7.3-2.7-11.4-8.2-15.5-11.8-8.7-23-18-34.7-26.9-2-1.5-4.8-2.6-7.2-2.6-51.6-.1-103.3-.1-154.9 0-2.2 0-4.9 1.2-6.4 2.8-8 8.3-15.7 17-23.8 25.8-13-9.4-26.1-18.2-38.4-28-6.5-5.1-12.1-6-20.1-3.6-24.9 7.5-50 14.1-75.1 20.8-2.9.8-6.4.8-9.3 0-28.1-7.3-56.1-14.9-84.2-22.2-2.1-.5-5.1 0-6.8 1.1-16.5 11.1-32.8 22.4-49 33.9-1.6 1.1-3 3.6-3.2 5.6-2.8 26.5-5.4 53-8 79.5-3.8 38.9-7.6 77.9-11.4 116.7-.5.3-.9.7-1.1.6-7.3-2.3-12.9.2-18.7 4.9-11.9 9.6-24.3 18.6-36.8 27.5-3.5 2.5-4.9 5.5-5.2 9.5-.8 9.6-1.9 19.2-3.8 28.8-1.8-13.1-3.8-26.3-5.3-39.4-.5-4.8-2.3-8.1-6.6-10.8-15.1-9.8-29.8-20.2-44.9-30.1-1.7-1.1-4.5-1.9-6.4-1.4C146 321.5 74.8 338.7 3.6 356c-.6.2-1.2.5-2.4.9 2.7 10.5 5.3 21 7.9 31.4 5.5 21.5 11.1 42.9 16.5 64.4.6 2.3.8 5 .2 7.3C17.5 492.8 9 525.5.6 558.2c-.2.6-.6 1.1-.9 1.7v2c9.3 9.4 18.6 18.7 27.9 28.2 7 7.2 14.1 14.3 20.9 21.8 2.6 2.8 5 3.6 8.7 3 28.3-4.6 56.7-9 85.1-13.5 21.9-3.5 43.7-7 65.6-10.3 2.6-.4 5.4 0 7.9.7 29 7.9 57.9 15.9 87.3 23.9 1.4-4.6 2.8-9.2 3.8-12.4 4.3.4 7.9 1.2 11.3.9 36-4 71.9-8.2 107.8-12.3 32.7-3.8 65.5-7.5 98.2-11.3.5 0 .9-.3 2.1-.8-4.2-35.5-8.4-71.1-12.6-107.1h22.6c-1 10.4-1.9 20.6-2.9 30.8-1.1 11.8-2.4 23.5-3.4 35.3-.2 2.1.6 4.6 1.8 6.4 8.3 12.4 16.7 24.7 25.4 36.8 1.8 2.5 4.8 4.8 7.7 5.6 44.8 12.6 89.7 24.9 134.6 37.4 1.7.5 3.3 1.3 5 2h3c2.4-9.5 4.8-18.9 7.3-28.9 34.5 4 68.5 7.9 103 11.8 3.8-30.2 7.6-60.2 11.4-90.1h1.1c4.6 14.9 10.1 29.6 13.5 44.8 1.4 6.4-1.5 13.7-2.5 20.6-.6 4.4-1.4 8.8-2.2 14.3 4-1.1 7.3-2 10.5-3 24.4-7.4 24.3-7 49.4-3.3 9.9 1.5 18.3 4.8 26 11 5.3 4.3 11.1 7.9 17.3 12.3 1.7-10.9 3.3-21.1 5.1-31.2.4-2.4 1.2-4.9 2.6-6.8 21.9-30.2 44-60.3 66-90.5.5-.7 1.1-1.3 2.7-1.7-4.5 36.4-9.1 72.8-13.7 109.9 40.1 4.6 79.8 9.2 120.2 13.9 5.7-45.7 11.5-91.2 17.2-137.1h26.8c-1 10.5-1.8 20.8-2.8 31-1.1 11.8-2.5 23.5-3.5 35.3-.2 2 .5 4.3 1.6 6 8.7 12.9 17.5 25.8 26.6 38.4 1.5 2.1 4.7 3.7 7.4 4.4 45.7 12.8 91.4 25.4 137 38 .9.3 1.8.7 2.8 1.1h2c2.5-9.5 4.9-18.9 7.5-28.9 34.4 3.9 68.4 7.9 102.9 11.8 1.5-11.2 2.9-22.2 4.3-33.1 3.1 5.6 8.6 5.7 13.7 6.6l196.8 36c.7.1 1.3.2 2.4.3 1.8-8.6 3.5-17.2 5.4-26.2 11.4 2.1 22.3 4 33.3 6 33.2 6.1 66.4 12.2 99.7 18.1 2.1.4 4.7-.3 6.7-1.2 11.9-5.1 23.8-10.3 35.6-15.8 2.5-1.2 5-3.4 6.4-5.8 20.5-34.8 40.8-69.8 61.1-104.7.9-1.5 2.1-2.8 3.2-4.2v-3c-1.6-2.7-3.3-5.3-4.7-8Zm-654-344.5c1.1-1 2.2-2 3.8-3.4 11.3 11.6 22.3 22.9 33.7 34.7-21.3 19.9-42.4 39.8-63.7 59.8 26.6 22.8 53 45.4 79.9 68.5-5.5 6.3-11.3 12.1-16.1 18.6-4.5 6-9.3 7.8-17.1 6.9-9-1-16-3.7-22.8-9.7-24.6-21.9-49.8-43.1-74.9-64.5-2.5-2.2-3.9-4.4-3.5-7.7.1-.8 0-1.7 0-2.5 0-8.2-2.2-17.2.7-24.2 2.8-6.8 11-11.4 16.8-17 21-19.8 42.1-39.6 63.2-59.4Zm33.9 83.7c-.5 3.8-.9 6.5-1.4 10.1-1.9-1.5-3.3-2.6-5.3-4.1 2.4-2.2 4.2-3.8 6.6-6Zm30.6 117.9c.6-.7 2.1-.8 3.2-.7 1.5 0 3 .5 4.5.8 9.3 1.7 9.9 2.3 10.7 12.4h-29.5c4.1-4.6 7.5-8.6 11.1-12.5Zm-119.7-25-.3.9c-6.2-.6-12.4-1.2-19-1.9 1-4.6 1.9-8.5 2.9-13.2 5.9 5 11.1 9.6 16.4 14.1Zm-22.3 17.1c-.8 9-1.5 17.9-2.5 26.8-.1.9-2.5 1.5-3.8 2.3-.4-.4-.7-.9-1.1-1.3 2.1-9.3 4.2-18.7 6.3-28 .4 0 .7 0 1.1.1Zm-293.4-66.6c4.7-30.3 9.3-60.6 14.2-90.9.5-3.3 2.4-6.9 4.8-9.4 14.7-15.1 14.9-14.8 38.8-18.2 31.1-4.5 62-9.7 93.1-14.3 2.2-.3 5 .4 6.8 1.7 6.9 5 13.6 10.4 20.2 15.9 1.5 1.2 2.7 3.5 2.8 5.3 2.5 47.9 4.8 95.9 7.2 143.8.1 2.9-.8 4.1-3.6 4.8-10.3 2.6-20.5 5.9-30.8 8.1-4.5 1-9.4.2-14.9.2-2.2-42.5-4.3-84.9-6.6-127.9-8.2 1.3-15.8 2.4-23.4 3.6-13.8 2.2-27.6 4.5-41.5 6.6-4.4.6-6.4 2.1-7.1 6.9-4.9 34.5-10.3 68.9-15.5 103.4-.2 1.6-.6 3.2-1 5.3-16.5-2.5-32.6-4.8-49.2-7.3 2-13 3.9-25.3 5.8-37.6Zm101.5 60.4c-22 30.4-44.2 60.6-66.3 90.8-.5.6-1.1 1.2-2.1 2.4-8.2-26.2-16.2-51.8-24.5-78.1 21.9 3.3 43 6.5 64.8 9.8 1.5-9.7 3-19.1 4.4-28.6 4.6-30.4 9.3-60.9 13.8-91.3.6-4.2 2.4-5.4 6.7-4.5.8 15.2 1.6 30.5 2.4 45.8.8 15.8 1.7 31.6 2.4 47.4 0 2.2-.3 4.8-1.6 6.5Zm-328.2-45c3-43.2 6-86.5 9.2-129.7.1-1.7.9-3.6 2.1-4.9 5.4-6.2 11-12.2 16.7-18.1 1.2-1.2 3.4-2.3 5.1-2.3 43-.1 86-.1 129 0 1.7 0 3.7.7 5 1.7 6.1 4.5 12.1 9.1 17.9 13.9 1.4 1.2 2.6 3.5 2.7 5.4 1.4 48 2.7 95.9 3.9 143.9 0 2-1.1 4.5-2.6 5.8-6 4.9-12.3 9.4-18.6 13.9-5 3.6-7.7 2.6-9.3-3.2-1.6-5.7-3.2-11.5-4.9-17.6-19.4 5.3-38.8 9.4-57.4 15.8-25.1 8.7-50.7 6.5-76.3 6.6-1.5 0-3.4-1.4-4.4-2.7-5.7-7.6-11.3-15.4-16.8-23.2-1-1.5-1.6-3.7-1.5-5.5Zm47.4 71.6H671c-.6-3 0-4.8 3.6-4.8H707c3.4 0 4.6 1.3 3.9 4.8ZM278.8 572.2c-9.9-2.7-19.3-5.2-28.7-7.8-4.2-1.2-8.6-2-12.6-3.6-3.3-1.3-6.1-3.7-9.2-5.4-2-1.1-4.5-2.6-6.5-2.3-47.5 7.4-95.1 14.7-142.5 22.7-9.9 1.7-17.3 1-23.4-7.7-3.7-5.3-9.1-9.4-13.4-14.3-1.3-1.6-2.3-4.5-1.8-6.4 7.2-28.6 14.6-57.2 22-85.8.4-1.6 1-3.4 2.1-4.3 6-4.9 12-9.8 18.3-14.3 1.4-1 3.8-1 5.8-1H202.3c-2.1-15.5-4.2-30.6-6.3-46.1-46.5 11.1-92.6 22.2-139.3 33.4-4-15.7-7.9-30.9-12-46.6 1.8-.6 3.3-1.2 4.8-1.6 53.3-12.9 106.6-25.8 159.9-38.5 2.4-.6 5.7.2 7.8 1.5 7 4.3 13.8 9 20.4 14 1.8 1.3 3.4 3.8 3.7 5.9 7 49.7 13.8 99.4 20.5 149.1.5 3.5 1.7 5.1 5.2 6 8.1 2 16.2 4.4 24.8 6.9-4.4 15.6-8.7 30.8-13.1 46.4Zm161.5-17.4c-24.7 2.9-49.3 5.7-74 8.6-12.4 1.4-24.8 3.1-37.2 4.2-2.3.2-5.3-.9-7-2.4-6.5-5.9-12.7-12.1-18.6-18.4-1.5-1.6-2.4-4.4-2.2-6.5 5.7-55.2 11.7-110.4 17.4-165.5.4-3.3 1.7-5.4 4.3-7.3 5.4-3.8 10.8-7.6 15.7-11.9 4.2-3.8 8.5-4.1 13.8-3.3 37 6.1 74 11.9 111 17.8 4.8.8 9.6 1.6 15.2 2.5-2.6 15.9-5.2 31.6-7.8 47.9-35.1-5.6-69.7-11.1-105.1-16.7-4.1 37.4-8.2 74.5-12.4 112.5 43.1-5.1 85.4-10.2 128.3-15.3 1.9 16.3 3.8 32.1 5.7 48.4-16.3 1.9-31.7 3.7-47.1 5.5Zm26.9-87.6c-24.4 2.9-48.5 5.7-73.6 8.7 1.1-10.5 2.2-20.6 3.3-31.3 7.8 1.2 15.1 2.3 22.3 3.4 13.7 2.2 27.3 4.8 41 6.5 5.3.6 6.9 2.8 6.7 7.4 0 1.6.1 3.2.2 5.3Zm20.7-166.8c-.2-37.7-.7-75.3-.9-113 0-4.2-1.1-6.1-5.5-7.2-11.6-2.8-23.1-6.2-35.4-9.6-4.5 45.6-9 90.7-13.5 136.7-16.7-1.3-32.7-2.6-49.1-3.9 0-1.5-.1-2.8 0-4 5.2-53.8 10.4-107.5 15.8-161.2.2-2 1.7-4.3 3.3-5.6 6.9-5.1 13.9-10 21.2-14.6 2.1-1.3 5.4-2 7.8-1.4 26 6.6 51.9 13.6 77.9 20.4 2.4.6 5.4.6 7.8 0 24.9-6.7 49.8-13.6 74.6-20.6 3.6-1 6.3-.6 9.2 1.7 6.9 5.3 14.2 10.2 21.2 15.5 1.5 1.2 2.9 3.4 3 5.2 2.9 54.4 5.6 108.8 8.4 163.3v3c-1.8.1-3.4.4-5 .4-13 0-26.1-.1-39.1.1-4.1 0-5.4-1.1-5.6-5.2-2.1-40.9-4.4-81.9-6.6-122.8-.1-1.8-.3-3.6-.5-6-13.6 3.6-26.8 7.1-40.1 10.7v122.9c-1.4.1-2.8.4-4.3.4-13.2 0-26.4-.1-39.6.1-4.2 0-5-1.5-5-5.2Zm20.7 41.2v-.5H549c-.3 3.8-.6 7.4-.9 11.3h-29.9c.3-2.9.6-5.7 1-8.9-3.7-.7-7.1-1.3-10.6-2Zm200.9 162.6c-17.1-4.8-33.5-9.4-49.8-14.2-1.1-.3-2.5-2.2-2.4-3.3.4-6.6 1-13.3 1.9-19.9.1-1 1.7-2.6 2.7-2.7 17.5-1.4 35-2.6 53.2-3.9-1.8 14.7-3.6 29-5.5 43.9Zm-4.1-78.6c-24.4 1.8-48.9 3.6-73.4 5.2-4.1.3-5.7 1.6-6.1 5.9-2.2 25.2-4.7 50.5-7.1 75.7v3c25.5 7.2 51.1 14.4 76.9 21.6-4.4 15.6-8.7 30.7-13 46.2-2-.5-3.6-.8-5.2-1.2-30.2-8.4-60.5-16.7-90.7-25.2-2.5-.7-5.1-2.6-6.6-4.7-4.7-6.3-10.9-12.5-12.7-19.6-1.8-7.2.8-15.5 1.5-23.2 2.2-22.4 4.4-44.8 6.5-67.2.1-1.5.2-3 .3-5.1h-75.4c-1.4-16.5-2.7-32.4-4.1-48.8h84.2c1.4-14.6 2.7-28.8 4.1-43.7 16.4 1.6 32.5 3.1 49.3 4.7-.9 10.2-1.8 20.2-2.7 30.7h86.3c1.1 15.2 2.1 29.6 3.2 44.4-5.5.5-10.5 1-15.5 1.4Zm81.8 145.1c-16.7-1.9-32.7-3.7-49.5-5.6 6.9-54.9 13.7-109.3 20.6-164.5 16.8 2 32.9 3.9 49.5 5.8-6.9 54.9-13.7 109.3-20.6 164.2ZM761.8 393c-5-18.3-9.9-36.2-15-54.9 16.1-4.4 31.6-8.6 47.9-13 5 18.3 9.9 36.2 15 54.9-15.9 4.3-31.5 8.6-47.9 13Zm160.6 163.5c-2.3 3.2-4.4 4.1-8.3 3.4-10.8-2-21.7-3.3-32.5-5.3-1.6-.3-3.5-2.8-4-4.7-11.6-36.6-23-73.2-34.5-109.8-7.9-25.3-15.9-50.6-23.8-75.9-.7-2.1-1.2-4.1-2.1-6.9 15.8-4.9 31.3-9.8 47.3-14.8 15.3 48.9 30.4 97.2 45.9 146.7 32-43.8 63.5-86.7 95.3-130.3 13.6 9.7 26.6 18.9 39.9 28.4-1.3 1.8-2.3 3.3-3.4 4.8-40 54.8-80 109.6-119.9 164.4Zm172.3 14.2c-16.9-1.9-32.9-3.7-49.5-5.6 6.9-54.9 13.7-109.2 20.6-164.4 16.4 1.9 32.6 3.8 49.5 5.8-6.9 54.8-13.7 109.2-20.6 164.2ZM1069.3 393c-5-18.3-9.9-36.2-14.9-54.8 15.9-4.3 31.5-8.6 47.9-13.1 5 18.3 9.9 36.3 15 55-16.2 4.4-31.7 8.6-47.9 13Zm57.5-110.9c-7.6 2-15.2 4-23.7 6.2 18.3-81.4 36.3-161.9 54.5-243.1 16.2 3.5 31.7 6.8 47.7 10.2-19.3 86.5-38.5 172.6-57.8 258.8-.5 0-.9.2-1.1.2q-11-1.9-13.9-12.5l-5.1-18.3c-.1-.5-.4-.9-.8-1.5Zm215.7 222.1c-17.6-5-34.8-9.8-52.7-14.8.8-8.5 1.6-16.6 2.4-25.1 18.6-1.4 36.9-2.7 55.8-4.1-1.9 14.8-3.7 29.1-5.5 43.9Zm7-79.4c-28.3 1.9-56.7 4-85 6.1-2.7.2-5.2.2-5.5 4.1-2.3 26.1-4.9 52.1-7.3 78.1 0 .6.1 1.3.2 2.2 25.5 7.2 50.9 14.3 76.8 21.6-4.4 15.5-8.6 30.6-13 46.1-1.7-.3-3.2-.5-4.6-.9-30.6-8.4-61.1-16.8-91.7-25.5-2.3-.7-4.8-2.5-6.2-4.4-4.7-6.3-10.9-12.5-12.7-19.6-1.9-7.2.7-15.5 1.5-23.2 2.2-22.4 4.4-44.8 6.5-67.2.2-1.6 0-3.2 0-5.3h-75c-1.4-16.3-2.7-32.2-4.2-49h84.3c1.4-14.6 2.7-28.8 4.1-43.5 16.6 1.6 32.7 3.2 49.4 4.8-1 10.3-1.9 20.2-2.8 30.6h86c.3 2 .5 3.5.6 5.1.9 11.8 1.6 23.6 2.6 35.4.3 3.3-.6 4.3-4 4.6Zm90.8-12.8c-3.2 24.6-6.2 49.3-9.3 73.9-3.3 26.6-6.7 53.3-10 79.9-.2 1.5-.5 2.9-.9 4.8-16.6-1.9-32.5-3.7-49.2-5.6 6.9-54.9 13.7-109.3 20.6-164.4 8.1.9 15.8 1.7 23.5 2.6 6.9.8 13.7 2.2 20.6 2.4 5 .2 5.3 2.2 4.7 6.2Zm-45.5-19c-5-18.3-9.9-36.3-14.9-54.9 16-4.4 31.6-8.6 47.9-13 5 18.4 9.9 36.4 14.9 54.9-16 4.3-31.6 8.6-47.9 13Zm58.1-111.1c-18.2 4.9-35.9 9.7-53.6 14.4-2.1.6-4.4.8-6.3 1.8-16.7 7.7-33.4 3.3-50-.3-1.6-.3-3.1-1.8-4.2-3.2-4.3-5.6-8.2-11.4-12.5-17-2.3-3-3.1-5.9-2.6-9.6 6.2-44.1 12.2-88.2 18.2-132.2 0-.3 0-.7.1-1 .7-4 18.4-20.5 22.6-20.9 19.9-1.7 39.7-3.3 59.6-4.9 17.3-1.4 34.7-2.8 52.1-4 2.7-.2 5.5.7 8.1 1.7 12.7 4.6 20.7 13.3 26.1 25.7 7.3 16.6 16.5 32.5 24.6 48.8.9 1.9 1 4.9.1 6.8-3.8 8.3-8 16.6-12.3 24.7-.9 1.7-2.9 3.4-4.7 3.8-41.3 8.6-82.6 17.1-123.9 25.5-.9.2-1.9.3-3.4.5-2.6-11.7-5.2-23.1-7.8-34.6h-1.3c-2.1 15.5-4.1 31-6.3 47 44.7 8.2 89.1 16.3 134.2 24.5-3.1 15.8-6.2 31.3-9.4 47.3-9.7-1.7-19.1-3.8-28.5-4.9-6.7-.8-9.7-3.7-11.1-10.2-2.1-9.9-5.1-19.5-7.8-29.7Zm222.3 158.4c-4.2 8-8 16.2-12.3 24.1-1 1.8-3.1 3.7-5 4.1-41.4 8.7-82.9 17.1-124.4 25.6-.6.1-1.3.2-2.6.4-2.8-12.2-5.4-24-8.1-35.8h-.9c-2.1 15.8-4.2 31.6-6.4 48 44.7 8.2 89.3 16.3 134.2 24.5-3.2 16-6.3 31.5-9.4 47.4-13.8-2.5-27-4.9-40.2-7.3-37.7-6.9-75.3-13.8-113-20.5-4.2-.8-7.4-2.2-9.8-6-4.3-6.7-11.5-12.6-13.3-19.8-1.8-7.4 1.3-16 2.4-24.1 5.1-37.5 10.2-75 15.5-112.4.4-2.5 2-5.2 3.7-7.2 3.2-3.6 7.3-6.5 10.5-10.1 3.6-4 7.9-5.7 13.2-6.1 27-2 53.9-4.1 80.9-6.2 8.4-.7 16.8-1.6 25.3-1.9 3.3 0 6.8 1.1 10 2.2 12.2 4.2 19.4 12.9 24.6 24.5 7.5 16.7 16.5 32.8 25 49.1 1.4 2.6 1.6 4.7.1 7.4Zm202.5 45.7c-15.9 27.7-32 55.3-48.2 82.8-.9 1.5-2.6 2.4-4 3.6-.2.2-.6.2-.9.4-14.9 10.7-30.8 6.8-47 3.6-28.3-5.6-56.8-10.5-85.1-15.7-2.1-.4-4.2-.9-6.8-1.4 3.1-15.9 6.2-31.4 9.4-47.5 15.8 2.9 30.8 5.7 45.9 8.6 16.6 3.1 33.1 6.3 49.8 9.3 1.6.3 4.5-.2 5.2-1.3 7-11.4 13.7-22.9 20.8-35-11.2-1.6-21.6-3.1-32-4.5-24.8-3.4-49.5-6.8-74.3-10.3-1.6-.2-3.2-1.5-4.6-2.7-1.2-1.1-1.9-2.8-3.2-3.9-12.1-11-14.9-24.2-12.3-40 2.7-16.9 2.8-34.2 4.5-51.3.3-3 2.1-6.1 4.1-8.5 3-3.6 7.1-6.3 10-9.9 4.4-5.7 10.3-6.7 16.9-7.2 33.7-2.5 67.4-5.2 101.1-7.8 7.2-.5 14.5-1 22.2-1.5 1 16.2 2.1 31.9 3.1 48.3-36.4 2.7-72.3 5.4-108.9 8.1-.8 10.1-1.7 20.3-2.6 31 9.1 1.3 17.7 2.5 26.4 3.8 31.1 4.4 62.2 8.7 93.3 13.2 1.4.2 3.1 1.5 3.7 2.7 4.8 9.2 9.6 18.4 14 27.7.7 1.5.5 4-.3 5.4Z"/><path d="M211 505.4c-37.8 5.9-74.9 11.7-112.5 17.6.1-1.4 0-2.5.3-3.5 2.1-8.4 4.4-16.8 6.4-25.2.6-2.6 1.6-4 4.7-3.9h95.4c2.6 0 4.1.6 4.3 3.5.2 3.6.9 7.2 1.4 11.5ZM1523.4 447.1c1.5-11.5 2.9-22.4 4.6-33.2.1-.8 1.8-1.8 2.9-1.9 23.3-1.8 46.5-3.4 69.8-5.2 3.8-.3 5.8.9 7.4 4.3 2.4 5.4 5.4 10.6 8.3 16.3-31.2 6.6-61.6 13.1-92.9 19.7ZM1383.5 195.1c1.5-11.4 2.8-21.9 4.4-32.4.2-1.1 2.1-2.6 3.3-2.7 23.2-1.8 46.5-3.4 69.8-5.2 3.6-.3 5.5.8 7 4.1 2.4 5.4 5.4 10.7 8.4 16.6-31.1 6.6-61.5 13.1-92.8 19.7ZM802.8 166.1c.8 30.1 1.6 59.7 2.4 89.6H715c1.9-30 3.9-59.7 5.8-89.6h82.1Zm-34.7 54.3v-19c-4.1 0-7.6-.2-11.1.1-1.1.1-2.9 1.8-3 2.9-.6 5.2-.7 10.5-.9 16h15Z"/></svg>