<?xml version="1.0" encoding="UTF-8"?>
<svg id="Layer_1" xmlns="http://www.w3.org/2000/svg" viewBox="0 0 300 300">
  <defs>
    <style>
      .cls-1 {
        fill: #fff;
      }

      .cls-2 {
        fill: #060d15;
      }
    </style>
  </defs>
  <g id="Rectangle_1">
    <path class="cls-2" d="M50.39,0C22.56,0,0,22.56,0,50.39v249.61h249.61c27.83,0,50.39-22.56,50.39-50.39V0H50.39Z"/>
  </g>
  <g>
    <g>
      <path class="cls-1" d="M182.58,204.63l.03-.07c-1.11-3.28-4.4-1.44-7.65-.95-2.3.38-4.74.61-7.03,1-3.27.55-7.71.55-9.98,1.77-2.85,1.45-1.13,1.77,1.63,1.65,7.7-.4,23.43,1.24,23.01-3.4h0Z"/>
      <path class="cls-1" d="M117.82,204.63l-.03-.07c1.11-3.28,4.4-1.44,7.65-.95,2.3.38,4.74.61,7.03,1,3.27.55,7.71.55,9.98,1.77,2.85,1.45,1.13,1.77-1.63,1.65-7.7-.4-23.43,1.24-23.01-3.4Z"/>
    </g>
    <g>
      <path class="cls-1" d="M90.13,163.53c.49,1.68,1.92,5.75,5.89,8.71,5.63,4.19,13.17,3.72,18.42,1.02,1.2-.61,6.13-3.14,8.11-8.76,3.04-8.6-3.62-16.22-4.48-17.18-.39-.43-5.51-5.93-13.52-6.44-1.88-.12-5.43-.05-9.13,1.92-1.56.83-2.73,2.18-3.55,3.53-2.77,4.7-3.06,12.08-1.74,17.2h0Z"/>
      <path class="cls-1" d="M210.71,163.53c-.49,1.68-1.92,5.75-5.89,8.71-5.63,4.19-13.17,3.72-18.42,1.02-1.2-.61-6.13-3.14-8.11-8.76-3.04-8.6,3.62-16.22,4.48-17.18.39-.43,5.51-5.93,13.52-6.44,1.88-.12,5.43-.05,9.13,1.92,1.56.83,2.73,2.18,3.55,3.53,2.77,4.7,3.06,12.08,1.74,17.2Z"/>
    </g>
    <path class="cls-1" d="M208.74,228.71c-2.53,5.29-5.4,9.14-7.55,11.67-2.3,2.71-4.29,4.48-4.88,5-1.15,1.01-3.77,3.21-7.55,5.42-2.36,1.37-4.26,2.23-4.89,2.5-1.14.5-3.08,1.29-5.78,2.09-2.58.76-5.3,1.21-10.66,2.08,0,0-4.82.79-11.98,1.67-2.83.47-7.68.47-10.51,0-7.17-.88-11.98-1.67-11.98-1.67-5.35-.87-8.08-1.32-10.66-2.08-2.7-.79-4.63-1.58-5.78-2.09-.63-.27-2.52-1.12-4.89-2.5-3.78-2.21-6.4-4.41-7.55-5.42-.6-.52-2.58-2.29-4.88-5-2.15-2.52-5.02-6.38-7.55-11.67,1.43,1.53,3.54,3.71,6.22,6.25,2.99,2.85,4.5,4.27,6.66,5.83,3.01,2.17,5.51,3.3,9.33,5,3.49,1.56,7.25,3.24,12.43,4.58,3.62.94,8.04,1.46,16.87,2.5,2.85.33,5.26.6,7.03.78,1.77-.19,4.18-.45,7.03-.78,8.83-1.04,13.25-1.56,16.87-2.5,5.17-1.34,8.94-3.03,12.43-4.58,3.82-1.7,6.32-2.83,9.33-5,2.16-1.56,3.66-2.98,6.66-5.83,2.68-2.54,4.79-4.72,6.22-6.25Z"/>
    <path class="cls-1" d="M300,111.39v65.33l-38.95,65.33c-21.82,12.19-43.11,27.01-64.92,39.2h-12.98c32.43-17.67,38.62-26.13,51.14-39.2,13.02-13.6,19.55-24.95,21.57-32.4.92-3.4,1.42-9.02,1.56-12.54.51-13.07-7.97-25.24-8.32-46.52-.35-21.35,2.08-18.82,0-37.11-.72-6.29-2.17-14.92-7.79-23.52-2.1-3.21-6.58-10.07-15.06-14.11-8.91-4.25-17.5-3.24-26.91-2.61-7.82.52-19.25,4.49-29.73,12.54-13.43,10.32-13.57,24.41-18.15,26.81-.22.13-.46.22-.71.28-.24.06-.49.09-.75.09s-.52-.03-.76-.09c-.25-.06-.49-.16-.71-.28-4.58-2.4-4.72-16.48-18.15-26.81-10.48-8.05-21.9-12.02-29.73-12.54-9.41-.63-18.01-1.64-26.91,2.61-8.48,4.05-12.96,10.9-15.06,14.11-5.62,8.6-7.07,17.23-7.79,23.52-2.08,18.29.35,15.76,0,37.11-.35,21.28-8.83,33.45-8.32,46.52.14,3.53.64,9.15,1.56,12.54,2.02,7.46,8.55,18.81,21.57,32.4,12.52,13.07,18.71,21.53,51.14,39.2h-12.98c-21.82-12.19-43.11-27.01-64.92-39.2L0,176.72v-65.33l30.74-26.7,17.64-32.15c2.32-4.21,5.87-7.61,10.18-9.73l28.37-13.94c2.22-1.09,4.6-1.82,7.06-2.16l48.64-6.78h14.74l48.65,6.78c2.45.34,4.83,1.07,7.06,2.16l28.37,13.94c4.31,2.12,7.87,5.51,10.18,9.73l17.64,32.15,30.74,26.7h0Z"/>
  </g>
</svg>