<?xml version="1.0" encoding="UTF-8"?>
<svg id="Layer_1" data-name="Layer 1" xmlns="http://www.w3.org/2000/svg" viewBox="0 0 512.96 450">
  <defs>
    <style>
      .cls-1 {
        fill: #fff;
        stroke-width: 0px;
      }
    </style>
  </defs>
  <path class="cls-1" d="M269.98,117h0c21.4-26.7,88.1-43.2,125.2-25.2,16.6,9.6,28.1,40.6,32,63,3.2,28.4-5.4,44,0,72.7,11.2,39.4,25.1,65.8,6.4,106.6-13.6,32.3-17.4,54.9-51.9,68.4-9.1,5.1-33,17.4-45.1,23.7-2.1,4.3-12,22.3-11.7,23.8,21.1-22.1,74.7-43,104.1-60.8,18.3-11,19.3-7.7,26-20.6,9.5-14.7,50-90.6,57.3-111.4,1-3,.9-13.6-.3-52.1-2.3-89.4,1-52.3-55.6-95-2.8-3.9-27.5-54-34-66.9C375.18,22.1,320.98,3.5,269.98,0h-27c-51,3.5-105.2,22.1-152.4,43.2-6.5,12.9-31.2,63-34,66.9C-.02,152.8,3.28,115.7.98,205.1c-1.2,38.5-1.3,49.1-.3,52.1,7.3,20.8,47.8,96.7,57.3,111.4,6.7,12.9,7.7,9.6,26,20.6,29.4,17.8,83,38.7,104.1,60.8.3-1.5-9.6-19.5-11.7-23.8-12.1-6.3-36-18.6-45.1-23.7-34.5-13.5-38.3-36.1-51.9-68.4-18.7-40.8-4.8-67.2,6.4-106.6,5.4-28.7-3.2-44.3,0-72.7,3.9-22.4,15.4-53.4,32-63,37.1-18,103.8-1.5,125.2,25.2h0"/>
  <path class="cls-1" d="M176.18,252c10.6.1,16.2-1.6,21.8-6.9,8.3-7.7,11-16.6,7.7-24.6-5.2-12.2-14.7-19.9-26.5-22.1-2.6-.4-6.9-.5-9.8-.3-12.4,1-16.3,6.3-16.3,23.2,0,11,1.7,17.6,6,23.4,3.7,5.1,8.5,7.2,17.1,7.3h0Z"/>
  <path class="cls-1" d="M220.18,308.1c-6-.9-8.4-3.6-13.1-.9-.5,7.7,18.2,6.1,22.9,7.6"/>
  <path class="cls-1" d="M256.48,414c42.7-9.8,106.7-19.6,112.5-66-21.5,38.4-69.4,48.8-112.5,58.5-43.1-9.6-91-20-112.5-58.5,5.8,46.4,69.8,56.1,112.5,66Z"/>
  <path class="cls-1" d="M336.78,252c-10.6.1-16.2-1.6-21.8-6.9-8.3-7.7-11-16.6-7.7-24.6,5.2-12.2,14.7-19.9,26.5-22.1,2.6-.4,6.9-.5,9.8-.3,12.4,1,16.3,6.3,16.3,23.2,0,11-1.7,17.6-6,23.4-3.7,5.1-8.5,7.2-17.1,7.3h0Z"/>
  <path class="cls-1" d="M292.78,308.1c6-.9,8.4-3.6,13.1-.9.5,7.7-18.2,6.1-22.9,7.6"/>
  <path class="cls-1" d="M242.98,117l9,18h9l9-18h-27,0Z"/>
  <polygon class="cls-1" points="256.48 144 260.98 135 251.98 135 256.48 144"/>
</svg>