<?xml version="1.0" encoding="UTF-8"?>
<svg id="Layer_1" data-name="Layer 1" xmlns="http://www.w3.org/2000/svg" viewBox="0 0 1777.2 896.61">
  <defs>
    <style>
      .cls-1, .cls-2 {
        stroke-width: 0px;
      }

      .cls-2 {
        fill: #fff;
      }
    </style>
  </defs>
  <path class="cls-1" d="M1777.2,264.53v3c-.77,1.22-1.65,2.38-2.28,3.66-12.55,25.35-25.25,50.62-37.47,76.13-3.09,6.46-6.03,12.06-14.13,12.31-.08,0-.14.42-.25.77,5.9,1.16,11.73,2.32,17.91,3.54-11.15,57.02-22.23,113.64-33.32,170.36-1.15,0-1.97.12-2.75-.02-14.57-2.69-29.13-5.41-43.69-8.12-80.01-14.89-160.02-29.76-240-44.76-3.54-.66-5.71-.08-8.1,2.7-13.79,16.05-27.8,31.91-41.71,47.86-.77.88-1.32,1.96-2.69,4.05,8.59-2.27,12.37,2.6,16.47,7.43,15.53,18.28,31.18,36.46,46.94,54.54,2.38,2.73,3.38,5.36,3.09,8.96-1.89,23.4-3.61,46.82-5.39,70.23-2.89,38.02-5.73,76.05-8.75,114.06-.19,2.42-1.24,5.2-2.81,7.03-12.5,14.51-25.44,28.65-37.78,43.3-4.95,5.88-10.34,9.17-18.11,10.6-66.26,12.23-132.44,24.92-198.64,37.54-11.22,2.14-22.38,4.61-33.56,6.93h-3c-.76-.85-1.45-1.79-2.3-2.55-13.02-11.67-26.06-23.33-39.11-34.97-3.55-3.17-7.18-6.25-10.75-9.36-9.39,7.05-18.25,13.85-27.31,20.36-1.86,1.34-4.49,2.23-6.79,2.26-84.19,1.16-168.37-.4-252.59,1.32-93.96,1.92-187.99.44-281.99.44-2.28,0-4.55,0-6.77,0-.44,2.61-.76,4.53-1.18,7.03-57.9-4.93-115.52-9.83-173.39-14.76.16-2.62.22-4.61.41-6.59,4.18-43.27,8.43-86.52,12.57-129.79,5.81-60.68,11.57-121.36,17.27-182.05.31-3.28,1.6-5.38,4.31-7.26,19.56-13.59,39.02-27.33,58.5-41.03,1.63-1.15,3.22-2.37,5.82-4.28h-250.01c2.05,7.46-2.59,6.56-7.02,6.18-48.95-4.19-97.9-8.35-146.84-12.53-6.58-.56-13.15-1.17-20-1.78.12-2.33.15-4.14.32-5.95,4.21-43.43,8.48-86.85,12.64-130.29,5.81-60.68,11.56-121.36,17.26-182.05.31-3.25,1.51-5.38,4.25-7.29,23.92-16.66,47.78-33.4,71.51-50.32,3.09-2.21,5.69-2.38,9.14-1.44,41.57,11.33,83.17,22.57,124.79,33.69,2.41.64,5.3.61,7.7-.05,40.25-11.12,80.47-22.32,120.65-33.7,4.36-1.23,7.55-.93,11.35,1.93,19.57,14.72,39.4,29.09,59.16,43.57,1.44,1.06,2.96,2.01,4.57,3.1,11.94-13.21,23.6-26.23,35.45-39.07,1.37-1.49,3.84-2.78,5.8-2.78,76-.14,152-.13,228-.04,1.82,0,3.99.69,5.4,1.81,20.54,16.2,41.02,32.48,61.36,48.92,1.51,1.22,2.42,3.78,2.68,5.83.43,3.45.12,6.99.12,10.4,8.7-8.31,16.81-16.21,25.12-23.87,1.7-1.56,4.1-2.88,6.35-3.24,39.76-6.44,79.55-12.7,119.34-19.02,28.44-4.52,56.88-9.03,85.3-13.65,4.13-.67,7.48-.43,10.94,2.62,7.25,6.37,15,12.18,22.54,18.21,13.9,11.11,27.8,22.23,42.34,33.85,13.2-59.71,26.25-118.75,39.45-178.44,56.84,12.35,113.31,24.62,170.25,36.99-8.76,40.03-17.38,79.46-26.01,118.88.39.14.78.28,1.17.42,16.71-15.94,33.43-31.88,50.35-48.01,20.12,21.01,39.95,41.71,59.17,61.79,2.22-3.36,3.62-6.57,5.95-8.82,15.92-15.41,31.99-30.66,48.12-45.84,1.45-1.37,3.59-2.55,5.53-2.76,8.61-.93,17.26-1.46,25.89-2.17,30.7-2.52,61.4-5.07,92.11-7.59,26.22-2.15,52.44-4.33,78.68-6.32,2.49-.19,5.39.31,7.58,1.47,17.2,9.13,34.3,18.44,51.33,27.89,2.16,1.2,4.27,3.26,5.38,5.44,18.01,35.27,35.81,70.65,53.75,105.96,4.65,9.14,9.6,18.13,14.41,27.18ZM336.13,246.67c3.61,65.83,7.18,130.83,10.76,196.06h69.99c0-2.45.09-4.58-.01-6.7-1.52-29.62-3.12-59.24-4.6-88.86-2.48-49.43-4.85-98.87-7.47-148.29-.12-2.22-1.74-5-3.54-6.37-10.59-8.08-21.55-15.68-32.15-23.75-3.52-2.67-6.59-3.2-10.88-1.97-36.15,10.34-72.34,20.5-108.61,30.42-3.59.98-7.92.72-11.57-.25-38.12-10.06-76.17-20.42-114.27-30.56-1.82-.48-4.44-.37-5.9.62-11.84,8.06-23.53,16.33-35.15,24.71-1.26.91-2.36,2.83-2.52,4.39-3.8,38.3-7.45,76.61-11.16,114.91-3.17,32.66-6.4,65.32-9.57,97.98-.99,10.22-1.84,20.44-2.79,31.07,23.73,2.01,46.73,3.96,70.19,5.95,6.53-67.05,13-133.5,19.52-200.38,20.06,5.63,39.85,11.18,59.7,16.75.61,60.4,1.22,120.33,1.83,180.16h69.03v-180.05c19.47-5.21,39.06-10.46,59.18-15.84ZM533.16,821.6h68.8v-180.03c19.24-5.16,38.95-10.44,59.17-15.86,3.6,65.57,7.18,130.71,10.77,196.05h69.99c0-2.46.09-4.59-.01-6.71-1.52-29.62-3.12-59.24-4.6-88.86-2.48-49.43-4.85-98.87-7.47-148.29-.12-2.21-1.76-4.99-3.56-6.36-10.87-8.27-22.08-16.08-32.96-24.33-3-2.27-5.58-2.61-9.1-1.61-36.17,10.25-72.4,20.29-108.57,30.57-4.36,1.24-8.3,1.18-12.63,0-38.04-10.37-76.12-20.6-114.22-30.74-1.82-.48-4.44-.35-5.9.64-11.84,8.06-23.53,16.33-35.15,24.71-1.26.91-2.35,2.84-2.5,4.4-4.14,41.78-8.12,83.57-12.17,125.36-3.17,32.66-6.41,65.32-9.58,97.98-.65,6.73-1.12,13.48-1.7,20.61,23.68,2.01,46.67,3.96,70.12,5.94,6.53-67.06,13.01-133.52,19.52-200.37,18.5,5.18,36.7,10.41,54.99,15.31,3.72,1,4.85,2.53,4.88,6.41.44,56.67,1.07,113.33,1.66,170,.02,1.64.14,3.28.23,5.18ZM1486.3,369.27c3.38-25.7,6.7-50.95,10.01-76.2.22,0,.44.01.66.02,4.23,19.11,8.46,38.22,12.67,57.27,1.21,0,1.89.11,2.52-.02,60.23-12.57,120.47-25.12,180.66-37.86,2.17-.46,4.74-2.42,5.76-4.38,6.49-12.56,12.51-25.36,18.91-37.97,1.38-2.72,1.21-4.72-.13-7.34-13.17-25.8-26.85-51.36-38.99-77.64-6.4-13.86-14.98-23.78-29.09-29.97-7.95-3.48-15.16-7-24.09-4.92-4.01.93-8.28.78-12.43,1.12-46.66,3.8-93.33,7.54-139.97,11.53-3,.26-6.31,1.91-8.64,3.89-6.09,5.17-11.42,11.25-17.62,16.28-5.49,4.45-7.45,9.83-8.35,16.61-8.42,64.06-17.16,128.08-25.64,192.13-.31,2.35.41,5.35,1.74,7.31,6.62,9.8,13.48,19.45,20.55,28.93,1.42,1.9,3.94,3.61,6.24,4.13,9.1,2.03,18.31,3.54,27.48,5.26,55.11,10.3,110.21,20.61,165.32,30.88,10.73,2,21.48,3.88,32.57,5.87,4.51-23.11,8.93-45.75,13.46-68.91-64.72-12.04-129.01-24.01-193.58-36.02ZM1127.44,475.26c-1.1,16.3-2.18,32.06-3.22,47.83-2.79,42.23-5.54,84.46-8.35,126.68-3.42,51.37-6.9,102.73-10.22,154.1-.11,1.65.93,3.88,2.18,5.03,10.95,10,22.01,19.88,33.2,29.61,1.24,1.07,3.58,1.66,5.21,1.37,20.29-3.65,40.55-7.48,60.81-11.31,44.98-8.5,89.95-16.99,134.9-25.63,2.22-.43,4.62-1.84,6.16-3.52,6.87-7.49,13.51-15.19,20.09-22.94,1.08-1.28,1.91-3.15,2.04-4.82,3.9-49.82,7.72-99.65,11.43-149.49.12-1.57-.72-3.57-1.77-4.82-8.03-9.58-16.1-19.12-24.46-28.4-1.55-1.72-4.39-2.98-6.74-3.2-43.46-3.96-86.94-7.72-130.42-11.54-8.75-.77-17.5-1.61-26.71-2.47,2.28-32.44,4.52-64.38,6.77-96.48h-70.9ZM733.59,305.75s-.06,0-.09,0c-.89-35.49-1.72-70.97-2.78-106.45-.07-2.3-1.29-5.27-3-6.71-9.05-7.61-18.38-14.89-27.74-22.12-1.44-1.11-3.57-1.88-5.38-1.88-62.32-.1-124.65-.1-186.97.03-1.84,0-4.16,1.12-5.43,2.49-8.53,9.14-16.93,18.39-25.11,27.83-1.58,1.82-2.66,4.58-2.85,6.99-1.3,16.11-2.29,32.24-3.4,48.36-3.28,47.53-6.6,95.07-9.74,142.61-.15,2.24.69,4.95,1.97,6.81,8.15,11.78,16.47,23.45,25,34.95,1.1,1.49,3.74,2.6,5.67,2.6,68.16.13,136.31.13,204.47,0,2.44,0,5.25-.96,7.24-2.38,9.21-6.59,18.11-13.61,27.3-20.23,2.76-1.99,3.65-4.14,3.56-7.47-.99-35.15-1.83-70.3-2.71-105.45ZM1058.61,685.15s-.06,0-.09,0c-.88-35.49-1.81-70.97-2.58-106.46-.08-3.49-1.15-5.79-3.97-7.94-8.88-6.76-17.45-13.92-26.33-20.68-1.81-1.38-4.43-2.41-6.67-2.41-61.99-.13-123.98-.13-185.97,0-1.99,0-4.5,1.14-5.87,2.6-8.55,9.11-16.93,18.39-25.13,27.82-1.49,1.71-2.54,4.27-2.73,6.54-1,11.45-1.64,22.93-2.43,34.4-3.59,52.02-7.24,104.04-10.65,156.07-.19,2.82.94,6.22,2.56,8.59,7.7,11.28,15.88,22.23,23.66,33.46,1.74,2.51,3.51,3.35,6.49,3.34,68.16-.08,136.31-.04,204.47-.17,2.43,0,5.22-1.03,7.21-2.46,9.07-6.5,17.83-13.44,26.9-19.94,2.9-2.08,3.96-4.24,3.85-7.82-1.01-34.98-1.83-69.97-2.71-104.95ZM977.9,254.18c3.19,63.11,6.36,125.6,9.52,188.08h69.53c0-9.25.36-18.23-.06-27.16-3.17-67.92-6.47-135.83-9.89-203.73-.11-2.12-1.5-4.74-3.14-6.11-10.35-8.66-20.89-17.09-31.51-25.42-1.34-1.05-3.6-1.67-5.29-1.44-10.87,1.51-21.71,3.31-32.56,5.03-45.22,7.14-90.45,14.24-135.65,21.53-2.4.39-4.96,1.88-6.73,3.6-6.81,6.62-13.45,13.42-19.87,20.42-1.78,1.94-3.22,4.68-3.67,7.25-2.06,11.98-3.68,24.04-5.52,36.05-6.55,42.94-13.13,85.87-19.68,128.81-1.34,8.79-2.55,17.61-3.87,26.75,23.57,3.62,46.54,7.14,69.87,10.72,8.39-56.26,16.72-112.04,25.03-167.79,34.7-5.57,68.85-11.05,103.47-16.6ZM1173.14,62.05c-26.7,120.62-53.24,240.5-79.79,360.43,1.24.3,1.71.51,2.19.51,22.33.03,44.66-.02,67,.12,3.29.02,3.77-1.83,4.29-4.25,3.1-14.33,6.24-28.65,9.39-42.97,18.25-83,36.52-166,54.76-249,3.65-16.63,7.22-33.28,10.87-50.12-22.94-4.91-45.5-9.75-68.71-14.72ZM1376.16,232.53c-16.35-17.12-32.37-33.88-48.48-50.75-40.39,38.56-80.41,76.74-120.32,115.04-1.31,1.26-2.07,3.74-2.06,5.64.06,12.16.65,24.32.55,36.48-.04,4.32,1.51,6.99,4.62,9.7,42.21,36.77,84.31,73.65,126.46,110.5,5.46,4.77,10.96,9.5,16.58,14.35,15.58-17.86,30.75-35.27,46.17-52.95-38.71-33.7-77.01-67.04-115.48-100.52,30.65-29.17,61.15-58.19,91.96-87.51ZM1074.04,494.56h-136.03c-3.04-60.21-6.05-119.92-9.08-179.97-3.39.6-5.95,1.05-8.65,1.53-8.92,59.83-17.79,119.36-26.75,179.44h6.58c45.15,0,90.3.04,135.45-.08,3.75,0,6.6,1.02,9.46,3.38,8.7,7.16,17.6,14.07,27.2,21.7.63-9.12,1.2-17.29,1.81-26ZM709.43,493.1c-.02.47-.05.94-.07,1.41,19.53,14.32,39.05,28.64,58.77,43.1,1.37-1.44,2.52-2.59,3.61-3.8,10.59-11.73,21.09-23.55,31.86-35.11,1.56-1.67,4.41-2.97,6.69-3,17.47-.25,34.95-.13,52.43-.13h10.06c-1.28-.67-1.54-.9-1.84-.95-38.93-6.03-77.91-11.82-116.78-18.24-7.47-1.23-12.75.5-18.61,4.88-7.68,5.74-14.03,15.01-26.13,11.86ZM1340.49,532.73c.18-.36.35-.72.53-1.07-29.4-25.67-58.81-51.34-89.03-77.72-1.7,24.3-3.31,47.27-4.94,70.59,31.57,2.77,62.51,5.49,93.44,8.2ZM673.9,494.44c-.05-.35-.1-.7-.16-1.05h-5.46c-61.82,0-123.63-.03-185.45.06-5.3,0-10.6.85-15.9,1.3,0,.43-.01.87-.02,1.3.72.25,1.43.55,2.16.75,32.42,8.81,64.84,17.64,97.29,26.34,1.79.48,3.96.18,5.8-.33,18.93-5.19,37.83-10.48,56.73-15.76,15-4.19,30-8.41,45-12.61ZM1368.98,324.75c.73-5.32,1.34-9.77,1.95-14.23-.28-.17-.56-.34-.84-.5-2.44,2.98-4.88,5.96-7.53,9.19,1.53,1.32,3.61,3.11,6.42,5.54Z"/>
  <path class="cls-2" d="M336.13,246.67c-20.12,5.39-39.7,10.63-59.18,15.84v180.05h-69.03c-.61-59.83-1.22-119.75-1.83-180.16-19.85-5.57-39.64-11.12-59.7-16.75-6.51,66.88-12.99,133.33-19.52,200.38-23.47-1.99-46.46-3.94-70.19-5.95.95-10.63,1.8-20.85,2.79-31.07,3.16-32.66,6.4-65.32,9.57-97.98,3.71-38.3,7.36-76.62,11.16-114.91.15-1.55,1.25-3.48,2.52-4.39,11.62-8.38,23.31-16.66,35.15-24.71,1.46-.99,4.09-1.11,5.9-.62,38.1,10.14,76.15,20.49,114.27,30.56,3.65.96,7.98,1.23,11.57.25,36.26-9.92,72.46-20.08,108.61-30.42,4.3-1.23,7.37-.7,10.88,1.97,10.6,8.07,21.56,15.67,32.15,23.75,1.8,1.37,3.42,4.16,3.54,6.37,2.62,49.42,4.99,98.86,7.47,148.29,1.49,29.62,3.08,59.24,4.6,88.86.11,2.12.01,4.26.01,6.7h-69.99c-3.58-65.23-7.15-130.23-10.76-196.06Z"/>
  <path class="cls-2" d="M533.16,821.6c-.09-1.9-.21-3.54-.23-5.18-.59-56.67-1.22-113.33-1.66-170-.03-3.87-1.16-5.41-4.88-6.41-18.29-4.91-36.49-10.13-54.99-15.31-6.51,66.85-12.99,133.31-19.52,200.37-23.45-1.99-46.45-3.94-70.12-5.94.58-7.13,1.05-13.88,1.7-20.61,3.17-32.66,6.41-65.32,9.58-97.98,4.05-41.79,8.04-83.58,12.17-125.36.15-1.56,1.24-3.49,2.5-4.4,11.61-8.38,23.31-16.66,35.15-24.71,1.46-1,4.09-1.12,5.9-.64,38.1,10.14,76.18,20.37,114.22,30.74,4.33,1.18,8.27,1.24,12.63,0,36.16-10.28,72.4-20.32,108.57-30.57,3.52-1,6.1-.66,9.1,1.61,10.88,8.25,22.1,16.06,32.96,24.33,1.8,1.37,3.44,4.15,3.56,6.36,2.62,49.42,4.99,98.86,7.47,148.29,1.49,29.62,3.08,59.24,4.6,88.86.11,2.12.01,4.26.01,6.71h-69.99c-3.59-65.34-7.16-130.48-10.77-196.05-20.22,5.42-39.93,10.7-59.17,15.86v180.03h-68.8Z"/>
  <path class="cls-2" d="M1486.3,369.27c64.57,12.01,128.86,23.98,193.58,36.02-4.52,23.16-8.94,45.79-13.46,68.91-11.09-2-21.84-3.87-32.57-5.87-55.11-10.28-110.21-20.59-165.32-30.88-9.17-1.71-18.38-3.23-27.48-5.26-2.3-.51-4.82-2.22-6.24-4.13-7.07-9.48-13.93-19.13-20.55-28.93-1.33-1.96-2.05-4.97-1.74-7.31,8.48-64.05,17.22-128.07,25.64-192.13.89-6.78,2.86-12.16,8.35-16.61,6.2-5.02,11.53-11.1,17.62-16.28,2.33-1.98,5.64-3.63,8.64-3.89,46.65-3.99,93.31-7.73,139.97-11.53,4.15-.34,8.42-.19,12.43-1.12,8.93-2.08,16.13,1.44,24.09,4.92,14.11,6.18,22.69,16.11,29.09,29.97,12.14,26.27,25.83,51.84,38.99,77.64,1.34,2.63,1.51,4.63.13,7.34-6.4,12.61-12.42,25.41-18.91,37.97-1.02,1.97-3.59,3.92-5.76,4.38-60.19,12.75-120.43,25.3-180.66,37.86-.63.13-1.31.02-2.52.02-4.21-19.05-8.44-38.16-12.67-57.27-.22,0-.44-.01-.66-.02-3.32,25.25-6.64,50.5-10.01,76.2ZM1497.73,282.14c45.78-9.89,90.38-19.53,135.42-29.26-5.18-10.17-9.84-19.55-14.81-28.77-.61-1.14-2.87-2.1-4.28-2-30.07,2.11-60.12,4.37-90.18,6.64-6.42.48-12.83,1.1-19.34,1.66-2.28,17.29-4.48,34.03-6.81,51.74Z"/>
  <path class="cls-2" d="M1127.44,475.26h70.9c-2.25,32.1-4.49,64.05-6.77,96.48,9.22.85,17.96,1.7,26.71,2.47,43.48,3.82,86.96,7.58,130.42,11.54,2.36.21,5.19,1.47,6.74,3.2,8.36,9.28,16.43,18.83,24.46,28.4,1.05,1.25,1.89,3.25,1.77,4.82-3.71,49.84-7.53,99.67-11.43,149.49-.13,1.66-.95,3.54-2.04,4.82-6.57,7.75-13.22,15.45-20.09,22.94-1.54,1.67-3.94,3.09-6.16,3.52-44.95,8.64-89.93,17.13-134.9,25.63-20.26,3.83-40.52,7.66-60.81,11.31-1.63.29-3.98-.3-5.21-1.37-11.19-9.73-22.26-19.6-33.2-29.61-1.25-1.14-2.29-3.38-2.18-5.03,3.31-51.37,6.8-102.73,10.22-154.1,2.81-42.23,5.56-84.46,8.35-126.68,1.04-15.77,2.12-31.53,3.22-47.83ZM1178.93,762.46c1.33-.11,1.99-.1,2.63-.22,38.58-7.38,77.14-14.86,115.75-22.05,4.15-.77,5.39-2.43,5.67-6.36,1.18-17.11,2.66-34.2,3.98-51.29.75-9.75,1.42-19.5,2.16-29.71-40.72-3.76-81.08-7.48-122.06-11.26-2.72,40.49-5.41,80.59-8.12,120.89Z"/>
  <path class="cls-2" d="M733.59,305.75c.88,35.15,1.72,70.3,2.71,105.45.09,3.33-.8,5.48-3.56,7.47-9.19,6.62-18.09,13.64-27.3,20.23-1.99,1.42-4.8,2.37-7.24,2.38-68.16.13-136.31.12-204.47,0-1.93,0-4.56-1.12-5.67-2.6-8.53-11.51-16.85-23.18-25-34.95-1.29-1.86-2.12-4.57-1.97-6.81,3.14-47.54,6.46-95.07,9.74-142.61,1.11-16.12,2.1-32.26,3.4-48.36.2-2.42,1.28-5.18,2.85-6.99,8.18-9.44,16.59-18.7,25.11-27.83,1.27-1.37,3.59-2.48,5.43-2.49,62.32-.13,124.65-.12,186.97-.03,1.81,0,3.94.77,5.38,1.88,9.36,7.22,18.69,14.51,27.74,22.12,1.71,1.44,2.93,4.41,3,6.71,1.06,35.48,1.89,70.97,2.78,106.45.03,0,.06,0,.09,0ZM533.91,370.68h131.48c-1.17-44.11-2.33-87.85-3.49-131.7h-119.51c-2.83,43.95-5.63,87.62-8.47,131.7Z"/>
  <path class="cls-2" d="M1058.61,685.15c.88,34.99,1.7,69.97,2.71,104.95.1,3.58-.95,5.74-3.85,7.82-9.07,6.5-17.82,13.44-26.9,19.94-1.99,1.43-4.78,2.46-7.21,2.46-68.16.13-136.31.09-204.47.17-2.98,0-4.75-.84-6.49-3.34-7.78-11.23-15.96-22.18-23.66-33.46-1.62-2.37-2.75-5.77-2.56-8.59,3.41-52.03,7.06-104.05,10.65-156.07.79-11.47,1.43-22.95,2.43-34.4.2-2.26,1.25-4.83,2.73-6.54,8.21-9.42,16.58-18.7,25.13-27.82,1.37-1.46,3.88-2.6,5.87-2.6,61.99-.14,123.98-.14,185.97,0,2.25,0,4.86,1.03,6.67,2.41,8.88,6.76,17.45,13.92,26.33,20.68,2.81,2.14,3.89,4.45,3.97,7.94.77,35.49,1.7,70.97,2.58,106.46.03,0,.06,0,.09,0ZM867.39,617.94c-2.83,44.17-5.64,87.94-8.45,131.78h131.46c-1.17-44.13-2.33-87.86-3.5-131.78h-119.51Z"/>
  <path class="cls-2" d="M977.9,254.18c-34.62,5.55-68.77,11.03-103.47,16.6-8.32,55.74-16.64,111.53-25.03,167.79-23.33-3.58-46.29-7.11-69.87-10.72,1.32-9.14,2.53-17.95,3.87-26.75,6.54-42.94,13.13-85.87,19.68-128.81,1.83-12.02,3.46-24.07,5.52-36.05.44-2.57,1.89-5.31,3.67-7.25,6.42-7,13.06-13.8,19.87-20.42,1.77-1.72,4.34-3.21,6.73-3.6,45.2-7.28,90.43-14.39,135.65-21.53,10.85-1.71,21.68-3.51,32.56-5.03,1.69-.23,3.95.38,5.29,1.44,10.62,8.33,21.16,16.76,31.51,25.42,1.64,1.37,3.03,4,3.14,6.11,3.42,67.9,6.72,135.81,9.89,203.73.42,8.93.06,17.91.06,27.16h-69.53c-3.16-62.49-6.32-124.97-9.52-188.08Z"/>
  <path class="cls-2" d="M1173.14,62.05c23.2,4.97,45.77,9.8,68.71,14.72-3.65,16.84-7.22,33.49-10.87,50.12-18.24,83-36.51,166-54.76,249-3.15,14.32-6.29,28.64-9.39,42.97-.52,2.42-1,4.27-4.29,4.25-22.33-.14-44.66-.09-67-.12-.47,0-.95-.21-2.19-.51,26.55-119.93,53.08-239.8,79.79-360.43Z"/>
  <path class="cls-2" d="M1376.16,232.53c-30.81,29.32-61.31,58.34-91.96,87.51,38.46,33.48,76.76,66.82,115.48,100.52-15.42,17.68-30.59,35.09-46.17,52.95-5.61-4.86-11.12-9.58-16.58-14.35-42.14-36.85-84.25-73.73-126.46-110.5-3.11-2.71-4.65-5.38-4.62-9.7.1-12.16-.48-24.32-.55-36.48,0-1.91.74-4.38,2.06-5.64,39.91-38.3,79.93-76.48,120.32-115.04,16.11,16.86,32.13,33.63,48.48,50.75Z"/>
  <path class="cls-1" d="M1497.73,282.14c2.33-17.7,4.53-34.45,6.81-51.74,6.51-.56,12.92-1.18,19.34-1.66,30.06-2.26,60.11-4.53,90.18-6.64,1.41-.1,3.66.86,4.28,2,4.96,9.22,9.63,18.61,14.81,28.77-45.04,9.73-89.64,19.37-135.42,29.26Z"/>
  <path class="cls-1" d="M1178.93,762.46c2.71-40.3,5.4-80.4,8.12-120.89,40.98,3.78,81.34,7.5,122.06,11.26-.74,10.21-1.41,19.96-2.16,29.71-1.32,17.1-2.79,34.19-3.98,51.29-.27,3.93-1.52,5.59-5.67,6.36-38.61,7.19-77.17,14.66-115.75,22.05-.64.12-1.3.12-2.63.22Z"/>
  <path class="cls-1" d="M533.91,370.68c2.83-44.07,5.64-87.75,8.47-131.7h119.51c1.16,43.85,2.32,87.59,3.49,131.7h-131.48ZM591.14,290.95c-.61,9.4-1.2,18.42-1.8,27.71h21.94v-27.71h-20.14Z"/>
  <path class="cls-1" d="M867.39,617.94h119.51c1.17,43.92,2.33,87.65,3.5,131.78h-131.46c2.81-43.84,5.62-87.61,8.45-131.78ZM936.18,697.71v-27.69h-20.01c-.62,9.25-1.22,18.27-1.85,27.69h21.86Z"/>
  <path class="cls-2" d="M936.18,697.71h-21.86c.63-9.42,1.23-18.44,1.85-27.69h20.01v27.69Z"/>
</svg>