<?xml version="1.0" encoding="UTF-8"?>
<svg xmlns="http://www.w3.org/2000/svg" version="1.1" viewBox="0 0 820 820">
  <!-- Generator: Adobe Illustrator 28.7.1, SVG Export Plug-In . SVG Version: 1.2.0 Build 142)  -->
  <g>
    <g id="Layer_1">
      <g>
        <path d="M132.2,142c6.3-11.5,16-20.8,27.8-26.6l77.5-38.1c6.1-3,12.6-5,19.3-5.9l132.9-18.5h40.3l133,18.5c6.7.9,13.2,2.9,19.3,5.9l77.5,38.1c11.8,5.8,21.5,15.1,27.8,26.6l48.2,87.9,84,73V0H137.7C61.7,0,0,61.7,0,137.7v165.1l84-73,48.2-87.9Z"/>
        <path d="M536.1,767.1h-35.5c88.6-48.3,105.6-71.4,139.8-107.1,35.6-37.2,53.4-68.2,59-88.6,2.5-9.3,3.9-24.7,4.3-34.3,1.4-35.7-21.8-69-22.7-127.2-1-58.4,5.7-51.4,0-101.4-2-17.2-5.9-40.8-21.3-64.3-5.7-8.8-18-27.5-41.2-38.6-24.4-11.6-47.8-8.9-73.6-7.1-21.4,1.4-52.6,12.3-81.3,34.3-36.7,28.2-37.1,66.7-49.6,73.3-.6.4-1.3.6-1.9.8-.7.2-1.3.2-2,.2s-1.4,0-2.1-.2c-.7-.2-1.3-.4-1.9-.8-12.5-6.6-12.9-45-49.6-73.3-28.6-22-59.9-32.9-81.3-34.3-25.7-1.7-49.2-4.5-73.6,7.1-23.2,11.1-35.4,29.8-41.2,38.6-15.4,23.5-19.3,47.1-21.3,64.3-5.7,50,1,43.1,0,101.4-1,58.2-24.1,91.4-22.7,127.2.4,9.6,1.7,25,4.3,34.3,5.5,20.4,23.4,51.4,59,88.6,34.2,35.7,51.1,58.8,139.8,107.1h-35.5c-59.6-33.3-117.8-73.8-177.4-107.1L0,481.4v338.6h682.2c76.1,0,137.7-61.7,137.7-137.7v-200.8l-106.5,178.6c-59.6,33.3-117.8,73.8-177.4,107.1ZM499.6,401.1c1.1-1.2,15.1-16.2,37-17.6,5.1-.3,14.8-.1,25,5.2,4.3,2.3,7.5,6,9.7,9.6,7.6,12.8,8.4,33,4.8,47h0c-1.3,4.6-5.2,15.7-16.1,23.8-15.4,11.5-36,10.2-50.3,2.8-3.3-1.7-16.8-8.6-22.2-23.9-8.3-23.5,9.9-44.3,12.2-47ZM431.7,562.5c6.2-3.3,18.3-3.3,27.3-4.8,6.3-1.1,12.9-1.7,19.2-2.7,8.9-1.3,17.9-6.4,20.9,2.6v.2c0,0,0,0,0,0,1.1,12.7-41.8,8.2-62.9,9.3-7.5.3-12.2-.5-4.5-4.5ZM362.1,557.7c8.9,1.5,21.1,1.5,27.3,4.8,7.8,4,3.1,4.8-4.5,4.5-21-1.1-64,3.4-62.9-9.3h0v-.2c3-9,11.9-3.9,20.8-2.6,6.3,1,13,1.7,19.2,2.7ZM251.1,398.4c2.2-3.7,5.4-7.4,9.7-9.6,10.1-5.4,19.8-5.6,25-5.2,21.9,1.4,35.9,16.4,37,17.6,2.4,2.6,20.6,23.5,12.2,47-5.4,15.4-18.9,22.3-22.2,23.9-14.3,7.4-35,8.7-50.3-2.8-10.9-8.1-14.8-19.2-16.1-23.8-3.6-14-2.8-34.2,4.8-47ZM457.6,702.1s-13.2,2.2-32.7,4.6c-7.7,1.3-21,1.3-28.7,0-19.6-2.4-32.7-4.6-32.7-4.6-14.6-2.4-22.1-3.6-29.1-5.7-7.4-2.2-12.7-4.3-15.8-5.7-1.7-.7-6.9-3.1-13.4-6.8-10.3-6-17.5-12.1-20.6-14.8-1.6-1.4-7.1-6.3-13.3-13.7-5.9-6.9-13.7-17.4-20.6-31.9,3.9,4.2,9.7,10.1,17,17.1,8.2,7.8,12.3,11.7,18.2,15.9,8.2,5.9,15.1,9,25.5,13.7,9.5,4.3,19.8,8.9,34,12.5,9.9,2.6,22,4,46.1,6.8,7.8.9,14.4,1.6,19.2,2.1,4.8-.5,11.4-1.2,19.2-2.1,24.1-2.8,36.2-4.3,46.1-6.8,14.1-3.7,24.4-8.3,34-12.5,10.4-4.6,17.3-7.7,25.5-13.7,5.9-4.3,10-8.1,18.2-15.9,7.3-6.9,13.1-12.9,17-17.1h0c-6.9,14.5-14.8,25-20.6,31.9-6.3,7.4-11.7,12.2-13.3,13.7-3.1,2.8-10.3,8.8-20.6,14.8-6.5,3.7-11.6,6.1-13.4,6.8-3.1,1.4-8.4,3.5-15.8,5.7-7.1,2.1-14.5,3.3-29.1,5.7Z"/>
      </g>
    </g>
  </g>
</svg>